<svg xmlns="http://www.w3.org/2000/svg" width="473.138" height="531.947" viewBox="0 0 473.138 531.947">
  <defs>
    <style>
      .cls-1, .cls-2, .cls-3 {
        fill: #e1e5e5;
      }

      .cls-1 {
        stroke: #000;
      }

      .cls-1, .cls-2 {
        stroke-miterlimit: 10;
      }

      .cls-2 {
        stroke: #4d0f0f;
      }
    </style>
  </defs>
  <g id="boston" transform="translate(-205.6 -163.253)">
    <g id="areas">
      <path id="Path_1" data-name="Path 1" class="cls-1" d="M247.5,317a169.373,169.373,0,0,1,16.4-25.7c1.7,1.1,3.6,2.3,5.6,2.1a9.714,9.714,0,0,0,3.6-1.6c5.7-3.1,12.5-3.3,18.9-3.9s13.4-2.2,17.7-7.1c1.8-2,3.2-4.6,5.7-5.5,2.8-.9,5.8.7,8.6.2a11.678,11.678,0,0,0,4.7-2.4c2.9-2.1,5.9-4.2,8.8-6.4,1.4-1,2.9-2.1,3.3-3.8.5-2.1-1-4.4-.5-6.5.7-3.3,5.5-3.9,8.5-2.3s5.2,4.4,8.3,5.8c4.9,2.1,11.4.3,15.1,4.1,2.1,2.2,2.4,5.7,1.9,8.7s-1.5,6-1.7,9.1c-.3,6.3,3.4,12,7.7,16.6,2.1,2.1,4.4,4.2,5.4,7,1.1,2.8.4,6.5-2.3,7.7-1.9.8-4,.2-6,0-6.7-1-13.3,1.5-19.6,3.9-6,2.3-12.1,4.6-17,8.8-8.9,7.6-12.6,20.3-22.3,26.7-3.7,2.5-8.2,3.9-11.5,7-2.4,2.2-4,5.2-5.9,7.8a34.9,34.9,0,0,1-16.4,12.2c-1.5.5-3.2,1-4.7.5-2.3-.8-3.4-3.4-4.8-5.5a13.348,13.348,0,0,0-11.9-5.7,5.67,5.67,0,0,1-2.9-.1,3.539,3.539,0,0,1-1.6-1.6,9.849,9.849,0,0,1,.2-10.8c.9-1.4,2.2-2.6,2.5-4.2.3-2.2-1.5-4.2-2.9-5.9-4.3-5.1-6.8-11.4-8.8-17.7-1.8-5.9-2.9-13.3,1.7-17.4"/>
      <path id="Path_2" data-name="Path 2" class="cls-1" d="M492.2,181c-1.9.2-3.4,1.7-4.8,3.2a97.179,97.179,0,0,0-6.7,7.7c-7.3,9.6-11.1,21.8-19.5,30.4,3.1,0,6.1,0,9.2.1a2.9,2.9,0,0,1,1.8.5,2.134,2.134,0,0,1,.7,1.2c1.4,3.6,2.8,7.3,4.2,10.9a43.231,43.231,0,0,1,2.5,7.7,40.5,40.5,0,0,0,1.2,5,13.937,13.937,0,0,0,7.5,7.4,37.6,37.6,0,0,0,10.5,2.6,23.594,23.594,0,0,0,7.5.1c4-.8,7.4-3.5,11.4-4.5a14.166,14.166,0,0,1,10.1,1.4c.7.4,1.5.8,2.1.3a2.22,2.22,0,0,0,.5-1.1c2.5-11,4.5-22.1,5.9-33.2a3.353,3.353,0,0,0,0-1c-.2-.5-.6-.7-1-1-2.1-1.1-4.5-1.2-6.9-1.5a129.051,129.051,0,0,1-26.8-5.6,26.035,26.035,0,0,0-7.2-1.7,8.271,8.271,0,0,0-6.7,2.6,6.747,6.747,0,0,1-5.3-4.6c-.8-2.5-.1-5.2.7-7.7,2.2-7.2,5.7-12.3,9.1-19.2"/>
      <path id="Path_3" data-name="Path 3" class="cls-1" d="M621.7,175.7c-5.2,1.9-11.1,4.4-12.8,9.8-.8,2.5-.5,5.2-.9,7.9-.6,4.5-3.3,8.5-6.3,11.9a37.66,37.66,0,0,1-9.6,8.2c-13.2,7.2-29.8,1.4-44.5,4.8,0,3.5,3.5,6.6,2.7,10.1-.5,2.3-2.8,3.9-3.3,6.2-.7,3.3,2.5,6.1,5.3,8,1.5,1.8-.3,4.5-2.4,5.4s-4.6.9-6.5,2.1a5.939,5.939,0,0,0-1.9,7.4c1.1,2,3.3,3.2,4.9,4.8s2.7,4.5,1.1,6.2a13.677,13.677,0,0,0,6.4,9.4c4.7,2.8,10.6,2.5,16,2,5.1-.4,11.5-1.9,12.3-7,1.4-.7,3,.9,3.3,2.5.4,1.5.2,3.3,1.2,4.6a6.621,6.621,0,0,0,2.7,1.9c6.4,2.8,13.3,4.5,18.8,8.8a24.373,24.373,0,0,1,7.2,27.4c2.2,1.3,4.5-2.7,7-2.2a4.867,4.867,0,0,1,2.1,1.4c2.7,2.8,5.5,5.5,8.2,8.3a55.941,55.941,0,0,0,1.9-14.7c-2.6.6-5.9.5-7.4-1.7-1.4-2.2-.2-5.3,1.9-6.7,2.2-1.4,4.9-1.6,7.5-1.5a45.443,45.443,0,0,1,14.1,2.9c3.1,1.2,6.1,2.7,9.4,3.3s7,.1,9.3-2.2c-3.4-.9-4.7-6-2.1-8.4,2.4-2.3,6.4-1.8,9.2-3.5a38.8,38.8,0,0,0-4-9.9,71.188,71.188,0,0,1-11.9,2.9,19.988,19.988,0,0,1-6.9,0c-4.2-.9-7.5-4-10.6-6.9-2.6-2.5-5.4-6.5-3.2-9.4,1.7-2.1,5.8-1.3,6.5,1.3,1.8-1.2,1.8-4,.6-5.8s-3.3-2.7-5.3-3.6c2-6.8,9.4-12,8.4-18.9-.5-3.7-3.5-6.7-6.9-8.3s-7.2-2-10.9-2.4a5.525,5.525,0,0,0-3.1.3,5.593,5.593,0,0,0-2,2.3c-2,3.4-3.9,6.7-5.9,10.1-1.8,1.5-4.7-.3-5.2-2.5-.5-2.3.4-4.6,1.1-6.8a7.775,7.775,0,0,1-4.2,1.1c-1.4-.2-2.9-1.5-2.5-2.9a3.157,3.157,0,0,1,1.1-1.7c2.5-2.7,4.9-5.3,7.4-8,.9-.1,1.7-.1,2.6-.2-2.1-3.6,1.4-8.5,5.6-9.1s8.2,1.6,11.7,4,6.9,5.1,11.1,5.8,9.2-1.7,9.6-5.9c.2-2.3-.9-4.9.5-6.8,1-1.3,2.8-1.6,4.3-2.2a11.564,11.564,0,0,0,6.4-5.5,18.762,18.762,0,0,0,7.4,3.2c-.4-6-.7-11.9-1.1-17.9a31.947,31.947,0,0,1-12.7-.1c-1.8-.4-4-1.3-4.1-3.2a5.562,5.562,0,0,1,.6-2.1c2.4-4.9,4.9-9.8,7.3-14.7L655,164.2a3.9,3.9,0,0,0-2.3-.4,3.674,3.674,0,0,0-1.6.9,39.13,39.13,0,0,0-13.5,23.6,17.5,17.5,0,0,1-17.3-12.7"/>
      <path id="Path_4" data-name="Path 4" class="cls-1" d="M532.9,280c-.4-6.8-3.8-13.9-10.1-16.6-4.2-1.8-8.9-1.4-13.5-1.1-9.8.9-19.7,1.7-29.5,2.6-1.9,5.8-2.6,15-4.6,20.8a.349.349,0,0,1-.1.2c8.9,0,17.9-2,26.8-2-2,4,4,8-1,11,1,2,3,5,2,7-3,3-4,7-4,11-5-3-9-1-13,1-1,1,0,3,1,5-2-1-4,1-6,2-1,2,3,4,2,6,10.7-1.5,20.8,6.9,29.5,5.5.2-.2.3-.4.5-.5-.2.2-.3.4-.5.5a11.929,11.929,0,0,0,7.4-4.4c3-9.4,6.1-18.8,9.1-28.2C531.1,293.5,533.3,286.8,532.9,280Z"/>
      <path id="Path_5" data-name="Path 5" class="cls-1" d="M483,327c-19-4-26,20-37,32,2,0,1,3,3,3-2,3-4,4-7,5,3,1,6,2,9-1,8.8,8.8,18.6,14.7,31.2,9.4-.1-.1-.1-.2-.2-.4.1.1.1.2.2.4a3,3,0,0,0,.8-.4c3-2,3-6,5-9,3-2,6-2,9,1,0-12.7,6.7-25.5,15.5-34.5C503.8,333.9,493.7,325.5,483,327Z"/>
      <path id="Path_6" data-name="Path 6" class="cls-1" d="M456,341l-3,3-3-3c4-2,7-5,10-7-6-1-8-4-8-10-4,7-11,2-19,3-1-6,1-11,0-17a186.007,186.007,0,0,1-41.4,4.3,7.42,7.42,0,0,0,8.2,4.6,24.531,24.531,0,0,0,6.6,22.3c-9.2-1.1-14.5,9.3-16.9,18.8,1.8-.1,3.5-.9,4.4,0,4,2,9,4,12,9,12-8,25-16,36-2,3-1,5-2,7-5-2,0-1-3-3-3,4-4.4,7.5-10.3,11.2-15.9C456.8,342.9,455.1,341.9,456,341Z"/>
      <path id="Path_7" data-name="Path 7" class="cls-1" d="M501,295c5-3-1-7,1-11-8.9,0-17.9,2-26.8,2a28.32,28.32,0,0,1-4.1,8.8c-3,3.8-7.7,5.9-12.3,7.6a180.028,180.028,0,0,1-25.7,7.6c1,6-1,11,0,17,8-1,15,4,19-3,0,6,2,9,8,10-3,2-6,5-10,7l3,3,3-3c-.9.9.8,1.9,1.2,2.1,6.5-9.8,13.7-18.6,25.8-16.1,1-2-3-4-2-6,2-1,4-3,6-2-1-2-2-4-1-5,4-2,8-4,13-1,0-4,1-8,4-11C504,300,502,297,501,295Z"/>
      <path id="Path_8" data-name="Path 8" class="cls-1" d="M491,392c-2-5.9-5.8-10.8-8.8-16.6-12.6,5.4-22.4-.5-31.2-9.4-3,3-6,2-9,1-11,7-18,18-21,32-1,1-4,1-4,1-4,11-10,19-17,28-12,17,8,14,18,23,1,0,1,5-1,7-2,1-5-2-7-2,3,5-1,11-6,12a7.808,7.808,0,0,0,4,4c7,2,14,3,15,10,0,2-2,6-4,8,5,1,7,5,11,8,3-8,9-15,17-18,0,3-1,7,1,8,5,5,14,3,19,10-2-11-7-22,0-32,13-20,22-42,22-65C489,398,492,395,491,392Z"/>
      <path id="Path_9" data-name="Path 9" class="cls-1" d="M406,369c-3-5-8-7-12-9-.9-.9-2.6-.2-4.4,0-.3,1-.5,2-.7,3-2,10.7-4.1,21.5-6.1,32.2-.6,3.4-1.8,7.4-5.1,8.5-2.1.7-4.4-.2-6.6,0-4.3.4-7.3,4.4-9.6,8.1-10.7,17-21.3,34-32,51-1.3,2.1-2.6,4.2-4,6.3h0c1.9.2,3.7,2,4.6,2,9-1,16-2,24,3-2.7,2.7-5.5,6.4-5.3,9.1.1,0,.2-.1.3-.1-.1,0-.2.1-.3.1a3.219,3.219,0,0,0,2.3,2.9c5,2,13,5,17,1,3-2,4-8,6-10,6-6,17-9,26-5,1,0,2-4,4-4,5-1,9-7,6-12,2,0,5,3,7,2,2-2,2-7,1-7-10-9-30-6-18-23,7-9,13-17,17-28,0,0,3,0,4-1,3-14,10-25,21-32C431,353,418,361,406,369Z"/>
      <path id="Path_10" data-name="Path 10" class="cls-1" d="M324,602c1-1-3-4-2-7s1-8,0-9c-9.7-10.7-6.2-25.1,2.2-33.2-2.8-8.8-7.6-16.9-14.2-24.8-3-3-2-12,1-14,14.9-8,19.9-25.8,37.7-30.9-.1-2.7,2.6-6.4,5.3-9.1-8-5-15-4-24-3-.9,0-2.7-1.7-4.6-2-3.8,5.6-8,10.8-13.6,14.4-7.7,4.9-18.8,5.9-25.5-.3-5.9-5.5-9.5-16.3-17.4-15-3.1.5-5.5,2.9-7.7,5.2-18.2,19.1-36.3,38.3-54.5,57.4,5,.8,10,1.7,15,2.5a28.032,28.032,0,0,0,5.3,17.7c3.7-4.8,10.4-9.9,14.9-6a11.8,11.8,0,0,1,2.8,4.7c3.4,8.9,5.6,21.2-2.7,25.8a31.985,31.985,0,0,1,24.6,18.9c2,4.8,2.8,10,5.3,14.5s7.6,8.3,12.6,6.9c5.7-1.5,8.3-8.8,13.9-10.8,6.2-2.2,12.8,3.3,14.8,9.5a20.921,20.921,0,0,1,.8,3.4C319,614,322,608,324,602Z"/>
      <path id="Path_11" data-name="Path 11" class="cls-1" d="M382,541c1,3-1,4-4,5v3c-3-3-5-5-4-9-9-1-6,11-6,16-3-2-6-1-7,3-5-2-8-10-13-4-3,4-3,10-2,14,4,12,18,26,5,33-7,4-12-10-16-16-3-5-8-11-8-15a60.773,60.773,0,0,0-2.8-18.2c-8.4,8.2-11.9,22.6-2.2,33.2,1,1,1,6,0,9s3,6,2,7c-2,6-5,12-9.9,16,.9,5.2.2,10.7.4,16,.2,6.5,2.3,13.8,8.1,16.9-6.9,2.2-4.3,12.8.1,18.5A103.642,103.642,0,0,0,350.5,694a37.3,37.3,0,0,1,17.4-21.2,34.084,34.084,0,0,0-11.6-8.7c5.4-8.2,15-12.3,23.3-17.5s16.6-13.1,16.1-22.9c-.4-7.8-6.3-14.1-11.8-19.7,2.3-3.7,4.8-7.5,8.7-9.4s9.5-.9,11.1,3.1c7.3-1.1,11.8-8.2,16.5-14-4-9-12.3-12.8-17.3-21.8C398,554,390,548,382,541Z"/>
      <path id="Path_12" data-name="Path 12" class="cls-1" d="M419,531c-7-5-11-13-17-19,10-4,18-10,28-14-4-3-6-7-11-8,2-2,4-6,4-8-1-7-8-8-15-10a7.808,7.808,0,0,1-4-4c-2,0-3,4-4,4-9-4-20-1-26,5-2,2-3,8-6,10-4,4-12,1-17-1a3.087,3.087,0,0,1-2.3-2.9C331,488.2,325.9,506,311,514c-3,2-4,11-1,14a72.4,72.4,0,0,1,14.2,24.8A61.271,61.271,0,0,1,327,571c0,4,5,10,8,15,4,6,9,20,16,16,13-7-1-21-5-33-1-4-1-10,2-14,5-6,8,2,13,4,1-4,4-5,7-3,0-5-3-17,6-16-1,4,1,6,4,9v-3c3-1,5-2,4-5,5.2,4.6,10.5,8.8,14.9,13.3C399.9,543.3,403,526,419,531Z"/>
      <path id="Path_13" data-name="Path 13" class="cls-1" d="M614.1,346.6c-5.9-2.3-12.4-2.3-18.7-2.3-17.5,0-36.9.8-49.6,12.9-3.1-9.1,6.5-18.1,16-19.9s19.3.8,28.9-.4c2-4.1-2.2-8.4-6.1-10.8a160.836,160.836,0,0,0-29.9-15c-4.6-1.7-9.4-3.2-14.3-2.5-9.9,1.4-16,11.2-20.7,20,0-.1.1-.3.1-.4a11.928,11.928,0,0,1-7.4,4.4l-.2.2c.2.1.5.2.7.3-.2-.1-.5-.2-.7-.3-8.7,9-15.3,21.6-15.3,34.3,5,3,6,8,4,13,2,0,3-1,5,1,8,8,16,16,18,27,6-4,16.1,1.5,18.1-6.5a8.067,8.067,0,0,1-3.3-3.8c-1.8-4.5,2-9.7,6.6-11.4s9.6-1.2,14.5-1.3a48.2,48.2,0,0,0,33.8-16c1.9,6.8,11.1,9.1,17.5,6.2,6.4-2.8,10.6-9,14.5-14.9C625.2,354,620,348.9,614.1,346.6Z"/>
      <path id="Path_14" data-name="Path 14" class="cls-1" d="M510,446c-2-8-10-1-14,5,1-8-8.1-11.7-14.1-13.7A153.624,153.624,0,0,1,467,466c-7,10-2,21,0,32,.9,3,1.9,4.4,2.8,7.4a5.676,5.676,0,0,1,.3,2.9c-.3,1.3-1.5,2.1-2.3,3.2-1.9,2.4-1.7,5.9-.5,8.7s3.3,5.1,5.1,7.6,3.5,5.2,3.6,8.3c.1,3.4-1.5,7.1.5,9.8,1.7,2.3,5.3,2.6,6.9,4.9,1.3,1.9.9,4.5,1,6.8.1,2.4-.6,4.8.6,6.9,2.1-1.1,4.4-2.3,6.7-1.9,6.2,1.1,7.2,12.4,13.5,12a8.137,8.137,0,0,0,4.5-2.3,165.874,165.874,0,0,0,46.5-57c2-4.1,3.9-8.8,2.4-13.1s-8.3-6.4-10.7-2.5c-2.2-5.5-4.3-11-6.5-16.6-.7-1.8-1.4-3.9-.6-5.7.8-1.9,3-2.7,4.4-4.2,3.4-3.6-.6-7.1-5.5-7.6s-7.5-.2-7.2,4.7C520.5,464.5,515,458,510,446Z"/>
      <path id="Path_15" data-name="Path 15" class="cls-2" d="M563,419.9c-3.5-5.6-7.3-11.4-13.1-14.5-2.5-1.4-5.5-2.3-7.8-3.9-2,8-12.1,2.5-18.1,6.5-2-11-10-19-18-27-2-2-3-1-5-1,2-5,1-10-4-13-3-3-6-3-9-1-2,3-2,7-5,9a3,3,0,0,0-.8.4c3,5.8,6.9,10.8,8.8,16.6,1,3-2,6-2,9a100.648,100.648,0,0,1-7.1,36.3c6,2,15.1,5.7,14.1,13.7,4-6,12-13,14-5,5,12,10.5,18.5,22.5,24.5-4-5.2-7.9-9.9-9.4-16.3,4.5-4.8,14.3-3.4,14.8,3.2,2.6-5.1,5.1-8.1,7.7-13.2a20.529,20.529,0,0,1-9.8-13.2,24.394,24.394,0,0,1,24.5,12.7c4.9-.1,8.3-5.5,8.1-10.3C568.2,428.4,565.5,424.1,563,419.9Z"/>
      <path id="Path_16" data-name="Path 16" class="cls-1" d="M484.3,557.6c-.1-2.3.3-4.9-1-6.8-1.6-2.3-5.2-2.6-6.9-4.9-2-2.7-.4-6.5-.5-9.8-.1-3.1-1.8-5.8-3.6-8.3s-3.9-4.8-5.1-7.6-1.4-6.3.5-8.7c.8-1.1,2-1.9,2.3-3.2a5.9,5.9,0,0,0-.3-2.9c-.9-3-1.9-4.4-2.8-7.4-5-7-14-5-19-10-2-1-1-5-1-8-8,3-14,10-17,18-10,4-18,10-28,14,6,6,10,14,17,19-16-5-19.1,12.3-22.1,23.3a44.894,44.894,0,0,1,6.1,7.7c5,9,13.3,12.8,17.3,21.8,4.7-5.7,12.7-10.9,19-7,.3-3,.7-6,1-9a59.268,59.268,0,0,0,44.7-3.3C483.8,562.5,484.4,560,484.3,557.6Z"/>
    </g>
    <g id="background" transform="translate(-665 -207.6)">
      <g id="Group_4" data-name="Group 4" transform="translate(0 -1)">
        <path id="Path_17" data-name="Path 17" class="cls-3" d="M911.6,526.1l.9-1.5c-1.1,3.9-.2,8.7,1.1,12.8,2,6.3,4.5,12.7,8.8,17.7,1.5,1.7,3.3,3.7,2.9,5.9-.2,1.6-1.6,2.9-2.5,4.2a10.049,10.049,0,0,0-.2,10.8,4.1,4.1,0,0,0,1.6,1.6,5.67,5.67,0,0,0,2.9.1,13.348,13.348,0,0,1,11.9,5.7c1.4,2.1,2.4,4.7,4.8,5.5a7.011,7.011,0,0,0,4.7-.5,34.9,34.9,0,0,0,16.4-12.2c1.9-2.6,3.5-5.6,5.9-7.8,3.3-3.1,7.8-4.5,11.5-7,9.7-6.5,13.4-19.2,22.3-26.7,4.9-4.2,11-6.5,17-8.8,6.3-2.4,12.9-4.8,19.6-3.9,2,.3,4.1.9,6,0,2.7-1.2,3.4-5,2.3-7.7-1.1-2.8-3.4-4.8-5.4-7-4.3-4.5-8-10.3-7.7-16.6.1-3.1,1.2-6,1.7-9.1.5-3,.2-6.5-1.9-8.7-3.7-3.9-10.2-2-15.1-4.1-3.1-1.3-5.3-4.2-8.3-5.8s-7.7-1-8.5,2.3c-.5,2.1,1,4.4.5,6.5-.4,1.7-1.9,2.8-3.3,3.8-2.9,2.1-5.9,4.2-8.8,6.4a13.124,13.124,0,0,1-4.7,2.4c-2.9.5-5.9-1.1-8.6-.2-2.5.8-3.9,3.4-5.7,5.5-4.3,4.9-11.2,6.4-17.7,7.1s-13.2.8-18.9,3.9a12.812,12.812,0,0,1-3.6,1.6c-2,.3-3.9-.9-5.6-2.1a161.852,161.852,0,0,0-13.4,20.3,9.567,9.567,0,0,0-1.9,3.4A15.594,15.594,0,0,1,911.6,526.1Z"/>
        <path id="Path_18" data-name="Path 18" class="cls-3" d="M1136.1,432a2.134,2.134,0,0,1,.7,1.2c1.4,3.6,2.8,7.3,4.2,10.9a43.231,43.231,0,0,1,2.5,7.7,40.51,40.51,0,0,0,1.2,5,13.937,13.937,0,0,0,7.5,7.4,37.6,37.6,0,0,0,10.5,2.6,23.594,23.594,0,0,0,7.5.1c4-.8,7.4-3.5,11.4-4.5a14.166,14.166,0,0,1,10.1,1.4c.7.4,1.5.8,2.1.3a2.219,2.219,0,0,0,.5-1.1c2.5-11,4.5-22.1,5.9-33.2a3.353,3.353,0,0,0,0-1c-.2-.5-.6-.7-1-1-2.1-1.1-4.5-1.2-6.9-1.5a129.052,129.052,0,0,1-26.8-5.6,26.036,26.036,0,0,0-7.2-1.7,8.271,8.271,0,0,0-6.7,2.6,6.747,6.747,0,0,1-5.3-4.6c-.8-2.5-.1-5.2.7-7.7,2.3-7.3,5.8-12.4,9.1-19.2-1.9.2-3.4,1.7-4.8,3.2a97.163,97.163,0,0,0-6.7,7.7c-7.3,9.6-11.1,21.8-19.5,30.4,3.1,0,6.1,0,9.2.1A2.73,2.73,0,0,1,1136.1,432Z"/>
        <path id="Path_19" data-name="Path 19" class="cls-3" d="M1284.4,384.5a2.354,2.354,0,0,1,.2.8c.4-.1.8-.3,1.1-.4Z"/>
        <path id="Path_20" data-name="Path 20" class="cls-3" d="M1340.7,502.1a38.793,38.793,0,0,0-4-9.9,71.188,71.188,0,0,1-11.9,2.9,19.988,19.988,0,0,1-6.9,0c-4.2-.9-7.5-4-10.6-6.9-2.6-2.5-5.4-6.5-3.2-9.4,1.7-2.1,5.8-1.3,6.5,1.3,1.8-1.2,1.8-4,.6-5.8s-3.3-2.7-5.3-3.6c2-6.8,9.4-12,8.4-18.9-.5-3.7-3.5-6.7-6.9-8.3s-7.2-2-10.9-2.4a5.525,5.525,0,0,0-3.1.3,5.593,5.593,0,0,0-2,2.3c-2,3.4-3.9,6.7-5.9,10.1-1.8,1.5-4.7-.3-5.2-2.5-.5-2.3.4-4.6,1.1-6.8a7.775,7.775,0,0,1-4.2,1.1c-1.4-.2-2.9-1.5-2.5-2.9a3.157,3.157,0,0,1,1.1-1.7c2.5-2.7,4.9-5.3,7.4-8,.9-.1,1.7-.1,2.6-.2-2.1-3.6,1.4-8.5,5.6-9.1s8.2,1.6,11.7,4,6.9,5.1,11.1,5.8,9.2-1.7,9.6-5.9c.2-2.3-.9-4.9.5-6.8,1-1.3,2.8-1.6,4.3-2.2a11.564,11.564,0,0,0,6.4-5.5,18.762,18.762,0,0,0,7.4,3.2c-.4-6-.7-11.9-1.1-17.9a31.947,31.947,0,0,1-12.7-.1c-1.8-.4-4-1.3-4.1-3.2a5.563,5.563,0,0,1,.6-2.1c2.4-4.9,4.9-9.8,7.3-14.7l-13.2-5.1a3.9,3.9,0,0,0-2.3-.4,3.674,3.674,0,0,0-1.6.9,39.13,39.13,0,0,0-13.5,23.6,17.563,17.563,0,0,1-17.1-11.9c-4.9,1.9-10.1,4.4-11.7,9.3-.8,2.5-.5,5.2-.9,7.9-.6,4.5-3.3,8.5-6.3,11.9a37.661,37.661,0,0,1-9.6,8.2c-13.2,7.2-29.8,1.4-44.5,4.8,0,3.5,3.5,6.6,2.7,10.1-.5,2.3-2.8,3.9-3.3,6.2-.7,3.3,2.5,6.1,5.3,8,1.5,1.8-.3,4.5-2.4,5.4s-4.6.9-6.5,2.1a5.939,5.939,0,0,0-1.9,7.4c1.1,2,3.3,3.2,4.9,4.8s2.7,4.5,1.1,6.2a13.677,13.677,0,0,0,6.4,9.4c4.7,2.8,10.6,2.5,16,2,5.1-.4,11.5-1.9,12.3-7,1.4-.7,3,.9,3.3,2.5.4,1.5.2,3.3,1.2,4.6a6.62,6.62,0,0,0,2.7,1.9c6.4,2.8,13.3,4.5,18.8,8.8a24.373,24.373,0,0,1,7.2,27.4c2.2,1.3,4.5-2.7,7-2.2a4.866,4.866,0,0,1,2.1,1.4c2.7,2.8,5.5,5.5,8.2,8.3a55.939,55.939,0,0,0,1.9-14.7c-2.6.6-5.9.5-7.4-1.7-1.4-2.2-.2-5.3,1.9-6.7,2.2-1.4,4.9-1.6,7.5-1.5a45.442,45.442,0,0,1,14.1,2.9c3.1,1.2,6.1,2.7,9.4,3.3s7,.1,9.3-2.2c-3.4-.9-4.7-6-2.1-8.4C1333.8,503.3,1337.8,503.8,1340.7,502.1Z"/>
        <path id="Path_21" data-name="Path 21" class="cls-3" d="M1278.2,555.7c-5.9-2.3-12.4-2.3-18.7-2.3-17.5,0-36.9.8-49.6,12.9-3.1-9.1,6.5-18.1,16-19.9s19.3.8,28.9-.4c2-4.1-2.2-8.4-6.1-10.8a160.838,160.838,0,0,0-29.9-15c-4.6-1.7-9.4-3.2-14.3-2.5-9.9,1.4-16,11.2-20.7,20,0-.1.1-.3.1-.4,3-9.4,6.1-18.8,9.1-28.2,2.1-6.5,4.2-13.1,3.8-19.9s-3.8-13.9-10.1-16.6c-4.2-1.8-8.9-1.4-13.5-1.1-9.8.9-19.7,1.7-29.5,2.6-1.9,5.8-2.6,15-4.6,20.8a.349.349,0,0,1-.1.2,28.32,28.32,0,0,1-4.1,8.8c-3,3.8-7.7,5.9-12.3,7.6a180.038,180.038,0,0,1-25.7,7.6,186,186,0,0,1-41.4,4.3,7.42,7.42,0,0,0,8.2,4.6,24.532,24.532,0,0,0,6.6,22.3c-9.2-1.1-14.5,9.3-16.9,18.8-.3,1-.5,2-.7,3-2,10.7-4.1,21.5-6.1,32.2-.6,3.4-1.8,7.4-5.1,8.5-2.1.7-4.4-.2-6.6,0-4.3.4-7.3,4.4-9.6,8.1-10.7,17-21.3,34-32,51-1.3,2.1-2.6,4.2-4,6.3h0c-3.8,5.6-8,10.8-13.6,14.4-7.7,4.9-18.8,5.9-25.5-.3-5.9-5.5-9.5-16.3-17.4-15-3.1.5-5.5,2.9-7.7,5.2-18.2,19.1-36.3,38.3-54.5,57.4,5,.8,10,1.7,15,2.5a28.032,28.032,0,0,0,5.3,17.7c3.7-4.8,10.4-9.9,14.9-6a11.8,11.8,0,0,1,2.8,4.7c3.4,8.9,5.6,21.2-2.7,25.8a31.985,31.985,0,0,1,24.6,18.9c2,4.8,2.8,10,5.3,14.5s7.6,8.3,12.6,6.9c5.7-1.5,8.3-8.8,13.9-10.8,6.2-2.2,12.8,3.3,14.8,9.5a20.921,20.921,0,0,1,.8,3.4c.9,5.2.2,10.7.4,16,.2,6.5,2.3,13.8,8.1,16.9-6.9,2.2-4.3,12.8.1,18.5a103.642,103.642,0,0,0,27.8,24.6,37.3,37.3,0,0,1,17.4-21.2,34.083,34.083,0,0,0-11.6-8.7c5.4-8.2,15-12.3,23.3-17.5,8.4-5.1,16.6-13.1,16.1-22.9-.4-7.8-6.3-14.1-11.8-19.7,2.3-3.7,4.8-7.5,8.7-9.4s9.5-.9,11.1,3.1c7.3-1.1,11.8-8.2,16.5-14,4.7-5.7,12.7-10.9,19-7,.3-3,.7-6,1-9a59.268,59.268,0,0,0,44.7-3.3c2.1-1.1,4.4-2.3,6.7-1.9,6.2,1.1,7.2,12.4,13.5,12a8.138,8.138,0,0,0,4.5-2.3,165.874,165.874,0,0,0,46.5-57c2-4.1,3.9-8.8,2.4-13.1s-8.3-6.4-10.7-2.5c-2.2-5.5-4.3-11-6.5-16.6-.7-1.8-1.4-3.9-.6-5.7.8-1.9,3-2.7,4.4-4.2,3.4-3.6-.6-7.1-5.5-7.6s-7.5-.2-7.2,4.7c-4-5.2-7.9-9.9-9.4-16.3,4.5-4.8,14.3-3.4,14.8,3.2,2.6-5.1,5.1-8.1,7.7-13.2a20.529,20.529,0,0,1-9.8-13.2,24.394,24.394,0,0,1,24.5,12.7c4.9-.1,8.3-5.5,8.1-10.3-.2-4.9-2.8-9.2-5.4-13.4-3.5-5.6-7.3-11.4-13.1-14.5-2.5-1.4-5.5-2.3-7.8-3.9a8.068,8.068,0,0,1-3.3-3.8c-1.8-4.5,2-9.7,6.6-11.4s9.6-1.2,14.5-1.3a48.2,48.2,0,0,0,33.8-16c1.9,6.8,11.1,9.1,17.5,6.2,6.4-2.8,10.6-9,14.5-14.9C1289.3,563.1,1284.1,558,1278.2,555.7Z"/>
      </g>
    </g>
    <g id="line">
      <g id="Group_5" data-name="Group 5" transform="translate(-333 -108)">
        <path id="Path_22" data-name="Path 22" d="M582,436.7c1.8,5.8,4.3,12.5,8.9,17.9l.3.3c1.4,1.6,2.8,3.3,2.6,5.2a6.942,6.942,0,0,1-1.6,2.9,7.634,7.634,0,0,0-.8,1.1,10.671,10.671,0,0,0-.2,11.4,4.441,4.441,0,0,0,1.8,1.8,4.993,4.993,0,0,0,2.7.2h.4a12.73,12.73,0,0,1,11.5,5.5c.3.5.6.9.9,1.4,1.1,1.8,2.1,3.6,4.1,4.2a4.529,4.529,0,0,0,1.6.3,9.827,9.827,0,0,0,3.4-.7,35.443,35.443,0,0,0,16.7-12.4c.6-.8,1.1-1.6,1.7-2.5a26.47,26.47,0,0,1,4.2-5.3,30.066,30.066,0,0,1,6.8-4.3,43.087,43.087,0,0,0,4.7-2.6c5.3-3.6,8.9-9,12.4-14.3,2.9-4.4,5.9-9,9.9-12.4,4.9-4.2,11-6.5,16.9-8.7s12.7-4.8,19.4-3.8a3.553,3.553,0,0,1,1,.2c1.8.3,3.6.6,5.3-.1,3-1.3,3.8-5.4,2.6-8.4a18.947,18.947,0,0,0-4.6-6.2l-.9-.9c-3.6-3.8-7.9-9.6-7.6-16.2a33.808,33.808,0,0,1,.9-5.4,22.878,22.878,0,0,0,.7-3.6c.6-3.9-.1-7.1-2.1-9.1-2.3-2.4-5.7-2.7-8.9-3a21.349,21.349,0,0,1-6.3-1.2,18.074,18.074,0,0,1-4.4-3,27.578,27.578,0,0,0-3.9-2.8,7.9,7.9,0,0,0-6.7-.3,4.249,4.249,0,0,0-2.5,2.9,6.992,6.992,0,0,0,.3,3.5,8.056,8.056,0,0,1,.3,3c-.3,1.4-1.6,2.5-3.1,3.5l-8.8,6.4a10.721,10.721,0,0,1-4.5,2.3,12.311,12.311,0,0,1-3.8-.2,10.154,10.154,0,0,0-4.9,0c-2,.7-3.4,2.4-4.7,4.1-.4.5-.8,1.1-1.2,1.5-4.4,5-11.6,6.3-17.3,6.9-1,.1-1.9.2-2.9.3-5.5.5-11.3,1-16.2,3.7l-.6.3a13.1,13.1,0,0,1-2.8,1.2c-1.8.2-3.5-.8-5.2-2l-.4-.3-.3.4a162.577,162.577,0,0,0-13.5,20.3,9.184,9.184,0,0,0-1.9,3.5c-.3.6-.7,1.3-1,1.9l.5.3C580.2,428.4,580.6,432.2,582,436.7Zm0-13.1,1.8-3.3.7-.7-.2-.2a173.732,173.732,0,0,1,12.6-19c1.8,1.2,3.5,2.2,5.5,1.9a9,9,0,0,0,3.2-1.3l.6-.3c4.8-2.6,10.4-3.1,15.9-3.6,1-.1,1.9-.2,2.9-.3,6-.6,13.4-2,18-7.3.4-.5.9-1.1,1.3-1.6,1.2-1.6,2.4-3.1,4.2-3.7a9.348,9.348,0,0,1,4.4,0,14.3,14.3,0,0,0,4.1.2,12.012,12.012,0,0,0,4.9-2.5l8.8-6.4c1.6-1.1,3-2.3,3.5-4.1a6.9,6.9,0,0,0-.3-3.5,8.056,8.056,0,0,1-.3-3,3.3,3.3,0,0,1,1.9-2.2,6.94,6.94,0,0,1,5.8.3,23.265,23.265,0,0,1,3.7,2.7,16.691,16.691,0,0,0,4.7,3.1,21.492,21.492,0,0,0,6.6,1.3c3.2.3,6.3.6,8.3,2.7,2.3,2.4,2.1,6.2,1.8,8.3-.2,1.2-.5,2.4-.7,3.5a26.178,26.178,0,0,0-.9,5.6c-.3,6.9,4.1,13,7.9,16.9l.9.9c1.7,1.8,3.5,3.6,4.4,5.9,1,2.5.4,6-2.1,7.1-1.4.6-3.1.3-4.7.1-.3-.1-.7-.1-1-.2-7-1-13.8,1.6-19.9,3.9-5.7,2.2-12.2,4.6-17.2,8.9-4.1,3.5-7.2,8.2-10.1,12.7-3.4,5.2-6.9,10.6-12.1,14a34.2,34.2,0,0,1-4.6,2.6,34.733,34.733,0,0,0-7,4.5A32.593,32.593,0,0,0,635,473c-.5.8-1.1,1.6-1.7,2.4a34.62,34.62,0,0,1-16.2,12,6.429,6.429,0,0,1-4.3.4c-1.6-.6-2.6-2.1-3.6-3.8l-.9-1.5a13.9,13.9,0,0,0-11.3-6h-1.4a4.446,4.446,0,0,1-2.3-.1,3.7,3.7,0,0,1-1.4-1.4,9.4,9.4,0,0,1,.2-10.3,7.008,7.008,0,0,1,.8-1,7.482,7.482,0,0,0,1.8-3.4c.3-2.3-1.3-4.3-2.8-6l-.3-.3c-4.5-5.2-6.9-11.8-8.7-17.6C581.3,431.1,581,426.8,582,423.6Z"/>
        <path id="Path_23" data-name="Path 23" d="M803.3,331.2a2.41,2.41,0,0,1,1.5.4c.3.2.4.6.6,1l4.2,10.9a40.758,40.758,0,0,1,2.5,7.7l.3,1.5a23.689,23.689,0,0,0,.9,3.6,14.341,14.341,0,0,0,7.8,7.7,40.088,40.088,0,0,0,10.6,2.6,37.251,37.251,0,0,0,4.7.4,13.577,13.577,0,0,0,2.9-.3,24.8,24.8,0,0,0,6.1-2.3,24.4,24.4,0,0,1,5.3-2.1,13.923,13.923,0,0,1,9.8,1.3c.6.3,1.8,1,2.7.3a2.334,2.334,0,0,0,.7-1.4,335.968,335.968,0,0,0,5.9-33.3,2.554,2.554,0,0,0-.1-1.2,2.19,2.19,0,0,0-1.3-1.2,19.216,19.216,0,0,0-6.7-1.5h-.4a128.133,128.133,0,0,1-26.7-5.6l-.6-.2a26.178,26.178,0,0,0-6.7-1.6,8.5,8.5,0,0,0-6.9,2.6,6.309,6.309,0,0,1-4.6-4.2c-.7-2.4-.1-4.9.7-7.4,1.5-5,3.7-8.9,5.9-13.1,1-1.9,2.1-3.9,3.2-6.1l.4-.8-.9.1c-2.1.2-3.6,1.7-5.1,3.3-2.3,2.5-4.7,5-6.8,7.7a100.45,100.45,0,0,0-8.1,13.3c-3.2,6-6.6,12.1-11.4,17l-.9.9H794C797.1,331,800.2,331.1,803.3,331.2Zm2.7-17.5a98.689,98.689,0,0,1,8-13.2,80.888,80.888,0,0,1,6.7-7.6,10.076,10.076,0,0,1,3.5-2.8q-1.35,2.7-2.7,5.1a72.519,72.519,0,0,0-6,13.2c-.8,2.6-1.5,5.4-.7,8a7.328,7.328,0,0,0,5.7,4.9h.3l.2-.2a7.611,7.611,0,0,1,6.3-2.4,24.545,24.545,0,0,1,6.5,1.5l.6.2a123.962,123.962,0,0,0,26.9,5.7h.4a16.565,16.565,0,0,1,6.3,1.4c.5.2.7.4.8.7.1.2,0,.5,0,.7-1.4,11.1-3.4,22.3-5.9,33.2-.1.4-.2.7-.4.8-.3.3-1,0-1.6-.4a14.281,14.281,0,0,0-10.5-1.4,28.7,28.7,0,0,0-5.5,2.2,24.923,24.923,0,0,1-5.9,2.3,22.425,22.425,0,0,1-7.3-.1c-3.4-.5-7.1-1-10.3-2.5a13.167,13.167,0,0,1-7.2-7.1,17.964,17.964,0,0,1-.8-3.5l-.3-1.5a50.976,50.976,0,0,0-2.6-7.8l-4.2-10.9a3.067,3.067,0,0,0-.9-1.4,3.39,3.39,0,0,0-2.1-.6c-2.4-.1-4.8-.2-7.2-.2h-.8C799.7,325.2,802.9,319.4,806,313.7Z"/>
        <path id="Path_24" data-name="Path 24" d="M996.5,318.5c.3-.1.7-.2,1-.3a11.552,11.552,0,0,0,6.4-5.3,18.39,18.39,0,0,0,7.2,3l.6.1-1.2-19.1-.6.1a30.959,30.959,0,0,1-12.5-.1c-.8-.2-3.6-.9-3.7-2.7a4.674,4.674,0,0,1,.6-1.9l7.6-15.2-13.8-5.3a4.49,4.49,0,0,0-2.6-.4,5.244,5.244,0,0,0-1.8,1,39.31,39.31,0,0,0-13.6,23.5A17.164,17.164,0,0,1,954,284.8c.2-.1.5-.2.7-.3l-.3-.9a1.445,1.445,0,0,1-.7.2c0-.1-.1-.2-.1-.3l-1,.3c0,.1.1.2.1.4-4.9,1.9-9.9,4.5-11.5,9.5a20.8,20.8,0,0,0-.7,5c0,1-.1,2-.2,3-.5,3.7-2.5,7.4-6.1,11.7a33.7,33.7,0,0,1-9.5,8c-7.6,4.1-16.2,3.9-25.4,3.7-6.3-.2-12.8-.4-19,1.1l-.4.1v.4a11.719,11.719,0,0,0,1.5,4.8c.8,1.8,1.6,3.4,1.2,5.2a6.942,6.942,0,0,1-1.6,2.9,10.622,10.622,0,0,0-1.8,3.3c-.9,4.1,3.8,7.4,5.4,8.5a1.7,1.7,0,0,1,.3,1.7,4.658,4.658,0,0,1-2.6,2.9,12.045,12.045,0,0,1-2.7.8,11.228,11.228,0,0,0-4,1.4,6.434,6.434,0,0,0-2.1,8.1,11.579,11.579,0,0,0,3.2,3.4l1.8,1.5c1.6,1.5,2.4,4.1,1,5.5l-.2.2v.2a14.11,14.11,0,0,0,6.7,9.7c4.6,2.7,10.1,2.6,16.3,2.1,5.3-.4,11.7-2,12.7-7.1a1.062,1.062,0,0,1,.8.1,3.521,3.521,0,0,1,1.6,2.1,7.721,7.721,0,0,1,.2,1.5,6.681,6.681,0,0,0,1,3.3,5.872,5.872,0,0,0,2.9,2c1.9.8,3.8,1.6,5.7,2.3,4.5,1.7,9.2,3.5,13,6.5a23.9,23.9,0,0,1,7.1,26.8l-.2.4.4.2c1.4.8,2.9-.1,4.1-.9,1-.7,2-1.4,3-1.2a3.094,3.094,0,0,1,1.8,1.3l8.8,8.9.2-.8a56.781,56.781,0,0,0,2-14.8v-.6l-.6.1c-1.2.3-5.2,1-6.8-1.5-1.3-1.9-.1-4.8,1.8-6,2.1-1.4,5-1.5,7.2-1.4a47.73,47.73,0,0,1,14,2.8c.9.3,1.7.7,2.5,1a31.925,31.925,0,0,0,7,2.3c3.9.7,7.6-.2,9.8-2.4l.6-.6-.8-.2a4.452,4.452,0,0,1-2.9-3.3,4.606,4.606,0,0,1,1-4.3c1.2-1.2,2.9-1.6,4.8-2a13.5,13.5,0,0,0,4.4-1.5l.3-.2-.1-.4a43.547,43.547,0,0,0-4-10l-.2-.4-.4.1a66.713,66.713,0,0,1-11.9,2.9,21.515,21.515,0,0,1-6.7.1c-4.2-.9-7.6-4.2-10.4-6.8-1.3-1.3-5.5-5.7-3.1-8.7a3.4,3.4,0,0,1,3.1-1,3.221,3.221,0,0,1,2.5,2.1l.2.7.6-.4a3.715,3.715,0,0,0,1.6-2.4,5.132,5.132,0,0,0-.9-4,11.955,11.955,0,0,0-5.1-3.6,30.942,30.942,0,0,1,3.9-7.1c2.4-3.6,5-7.3,4.3-11.6-.5-3.5-3.2-6.8-7.1-8.6-3.5-1.6-7.3-2-11-2.4a6.322,6.322,0,0,0-3.3.3,5.3,5.3,0,0,0-2.2,2.5l-5.8,10a2.235,2.235,0,0,1-1.9.3,3.9,3.9,0,0,1-2.4-2.6c-.4-1.8.2-3.7.8-5.5.1-.3.2-.7.3-1l.3-1.1-1,.5a7.317,7.317,0,0,1-3.9,1,2.653,2.653,0,0,1-1.8-1.1,1.558,1.558,0,0,1-.3-1.2c.1-.6.6-1,1-1.5l7.2-7.9,3.2-.2-.4-.7a4.324,4.324,0,0,1,0-4.4,7.209,7.209,0,0,1,5.3-4c4.1-.6,8.2,1.7,11.3,3.9a14.632,14.632,0,0,0,1.3.9c3.1,2.2,6.2,4.4,10,5a9.955,9.955,0,0,0,7.5-1.9,6.58,6.58,0,0,0,2.6-4.5,11.112,11.112,0,0,0-.1-2.6c-.2-1.5-.3-2.9.5-3.9A5.53,5.53,0,0,1,996.5,318.5Zm-3.9,1.1c-1,1.4-.8,3-.7,4.6a9.855,9.855,0,0,1,.1,2.4,5.718,5.718,0,0,1-2.2,3.8,9.459,9.459,0,0,1-6.8,1.7c-3.5-.6-6.6-2.7-9.6-4.8-.4-.3-.9-.6-1.3-.9-3.2-2.2-7.5-4.7-12-4a8.268,8.268,0,0,0-6,4.6,6.191,6.191,0,0,0-.3,4.6l-2.1.1-7.5,8.2a4.141,4.141,0,0,0-1.2,1.9,2.145,2.145,0,0,0,.5,2,3.666,3.666,0,0,0,2.5,1.5,6.512,6.512,0,0,0,3.4-.7,12.191,12.191,0,0,0-.8,6,4.674,4.674,0,0,0,3.1,3.3,2.755,2.755,0,0,0,2.9-.5l6-10.2a4.627,4.627,0,0,1,1.8-2.1,5.286,5.286,0,0,1,2.8-.2c3.6.4,7.4.8,10.7,2.4,3.6,1.7,6.1,4.7,6.6,7.9.6,4-1.7,7.3-4.2,10.9a26.82,26.82,0,0,0-4.2,7.8l-.1.4.4.2c1.8.8,3.9,1.7,5.1,3.4a4.287,4.287,0,0,1,.7,3.3,3.081,3.081,0,0,1-.7,1.4,4.215,4.215,0,0,0-3-2.1,4.272,4.272,0,0,0-4.1,1.3c-2.9,3.7,1.7,8.7,3.2,10.1,2.9,2.7,6.4,6.1,10.9,7.1a21.152,21.152,0,0,0,7.1,0,65.392,65.392,0,0,0,11.6-2.8,42.076,42.076,0,0,1,3.6,9.1,16.008,16.008,0,0,1-3.7,1.2c-1.9.4-3.8.8-5.2,2.2a5.537,5.537,0,0,0-1.3,5.3,5.672,5.672,0,0,0,2.8,3.7c-2,1.6-5,2.2-8.3,1.6a33.708,33.708,0,0,1-6.8-2.2,27.733,27.733,0,0,0-2.6-1,46.678,46.678,0,0,0-14.3-2.9c-2.4-.1-5.4,0-7.8,1.6-2.3,1.5-3.7,5-2,7.4,1.7,2.6,5.3,2.4,7.3,2a52.906,52.906,0,0,1-1.7,13.1l-7.6-7.7a4.64,4.64,0,0,0-2.3-1.5,4.329,4.329,0,0,1-.5-.1,5.483,5.483,0,0,0-3.2,1.4,3.976,3.976,0,0,1-2.7,1.1,24.927,24.927,0,0,0-7.5-27.5c-3.9-3.1-8.7-4.9-13.2-6.6-1.9-.7-3.8-1.4-5.6-2.2a5.583,5.583,0,0,1-2.5-1.7,6.51,6.51,0,0,1-.8-2.8,9,9,0,0,0-.3-1.6,4.347,4.347,0,0,0-2.1-2.8,2.115,2.115,0,0,0-1.9,0l-.2.1v.3c-.7,5-7.7,6.3-11.8,6.6-6,.5-11.3.6-15.7-2a12.889,12.889,0,0,1-6.1-8.8c1.5-1.8.6-4.9-1.2-6.7-.6-.6-1.2-1.1-1.8-1.6a12.525,12.525,0,0,1-3-3.1,5.43,5.43,0,0,1,1.7-6.8,11.076,11.076,0,0,1,3.6-1.3,14.732,14.732,0,0,0,2.8-.8,5.712,5.712,0,0,0,3.2-3.6,2.959,2.959,0,0,0-.6-2.6l-.1-.1c-4-2.7-5.6-5.1-5.1-7.5a7.977,7.977,0,0,1,1.6-3,8,8,0,0,0,1.7-3.3c.5-2.1-.4-4-1.3-5.8a14.659,14.659,0,0,1-1.4-4c5.9-1.3,12.2-1.1,18.3-1,8.9.2,18,.5,25.9-3.8a36.106,36.106,0,0,0,9.8-8.3c3.8-4.4,5.8-8.3,6.4-12.2.1-1,.2-2.1.2-3.1a17.8,17.8,0,0,1,.6-4.7c1.5-4.6,6.2-7,10.9-8.8a17.948,17.948,0,0,0,17.4,11.7h.4l.1-.4a38.408,38.408,0,0,1,13.3-23.3,2.851,2.851,0,0,1,1.4-.8,3.948,3.948,0,0,1,2.1.4l12.7,4.9-7.1,14.2a6.115,6.115,0,0,0-.7,2.4c.1,1.7,1.7,3.1,4.5,3.7a33.915,33.915,0,0,0,12.3.2l1,16.7a16.485,16.485,0,0,1-6.6-3l-.5-.3-.3.5a11.338,11.338,0,0,1-6.1,5.3l-.9.3A4.857,4.857,0,0,0,992.6,319.6Z"/>
        <path id="Path_25" data-name="Path 25" d="M947.3,454.4h0c-6-2.4-12.9-2.4-18.9-2.3-18.1,0-36.8,1-49.3,12.5a11.659,11.659,0,0,1,1.5-8.8,21.7,21.7,0,0,1,14.4-9.6c5-.9,10.3-.6,15.3-.3a86.913,86.913,0,0,0,13.5,0h.3l.1-.2c2-4.2-1.9-8.7-6.3-11.5a159.073,159.073,0,0,0-30-15.1c-4.3-1.6-9.4-3.3-14.5-2.6-8.2,1.2-13.9,8-18.7,16l7.8-23.9c2-6.2,4.3-13.1,3.9-20.1-.4-7.8-4.5-14.5-10.4-17-4.4-1.9-9.3-1.5-13.7-1.1L812.5,373l-.1.3a82.843,82.843,0,0,0-2.3,10.5,65.685,65.685,0,0,1-2.3,10.3l-.1.2a28.517,28.517,0,0,1-4,8.6c-3,3.8-7.8,5.9-12.1,7.5a186.179,186.179,0,0,1-67,11.9h-.7l.2.7a7.75,7.75,0,0,0,8.1,5,25.048,25.048,0,0,0,6,21.1h-.1c-9.9,0-14.3,12.8-15.9,18.9h0l-.1.3-.2.7h0a20.473,20.473,0,0,0-.5,2.4l-6.1,32.2c-.6,3.3-1.7,7.1-4.8,8.1a9.179,9.179,0,0,1-3.7.1,13.128,13.128,0,0,0-2.8-.1c-4.4.4-7.4,4.2-10,8.4l-32,51c-1.2,2-2.5,4-3.9,6.1l-.2.2c-3.1,4.6-7.5,10.4-13.5,14.3-7.2,4.6-18.1,6-24.9-.3a35.95,35.95,0,0,1-5.1-6.3c-3.4-4.8-7-9.8-12.7-8.9-3.4.5-6,3.3-8,5.3l-55.1,58.1,15.5,2.6a27.924,27.924,0,0,0,5.5,17.6l.4.5.4-.5c2.5-3.2,6.5-6.8,10.2-7.2a5.193,5.193,0,0,1,4,1.2,10.674,10.674,0,0,1,2.6,4.5c2.3,5.9,6.6,20.2-2.5,25.2l-1.3.7,1.5.2A31.229,31.229,0,0,1,599.1,703a60.273,60.273,0,0,1,2,6,44.882,44.882,0,0,0,3.3,8.6c2.6,4.6,7.9,8.6,13.2,7.2,3.1-.8,5.3-3.3,7.5-5.6,1.9-2.1,3.9-4.3,6.5-5.2a8.2,8.2,0,0,1,6.8.6,14.882,14.882,0,0,1,7.3,8.6,33.838,33.838,0,0,1,.8,3.4,49.514,49.514,0,0,1,.4,10.2c0,1.9-.1,3.8,0,5.7.3,7.8,3,13.9,7.5,16.8a5.992,5.992,0,0,0-3.2,3.9c-1.4,4.5,1.1,11.1,4.1,15a104.425,104.425,0,0,0,27.9,24.7l.5.3.2-.6A36.966,36.966,0,0,1,701,781.7l.5-.3-.4-.5a36.089,36.089,0,0,0-11.2-8.6c4.2-6.1,11-10,17.6-13.7,1.7-1,3.6-2,5.3-3.1,6.4-3.9,16.9-12.1,16.3-23.3-.4-7.7-5.7-13.7-11.7-19.7,2-3.2,4.5-7,8.3-8.9a8.782,8.782,0,0,1,7.1-.3,5.8,5.8,0,0,1,3.4,3.2l.1.4.4-.1c6.5-1,10.7-6.4,14.9-11.7.6-.8,1.3-1.7,1.9-2.5,4.8-5.9,12.5-10.5,18.3-6.9l.7.4,1-9.1a59.634,59.634,0,0,0,44.1-3.3h0l.4-.2h0l.5-.2h0c1.9-1,4-2,6-1.6,2.7.5,4.5,3.3,6.2,6,1.9,3,3.8,6,7.1,6h.4c1.8-.1,3.3-1.2,4.8-2.4a168.89,168.89,0,0,0,46.7-57.1c2.2-4.4,4-9.1,2.4-13.5a8.163,8.163,0,0,0-6.6-4.9,5.105,5.105,0,0,0-4.4,1.5l-6.2-15.7c-.7-1.8-1.4-3.7-.6-5.3a8.1,8.1,0,0,1,2.4-2.5c.6-.5,1.3-1,1.9-1.6a4.253,4.253,0,0,0,1.2-4.3c-.8-2.1-3.6-3.8-7-4.1-3.2-.3-5.3-.3-6.6.9a4.072,4.072,0,0,0-1.1,2.9c-3.6-4.6-7-9.1-8.4-14.7a9.733,9.733,0,0,1,9.6-2c2.5.9,4,2.7,4.1,5l.1,1.8.8-1.6c1.3-2.5,2.6-4.6,3.8-6.6,1.3-2,2.6-4.1,3.9-6.6l.2-.4-.4-.2a20.15,20.15,0,0,1-9.5-12.4,23.925,23.925,0,0,1,23.5,12.5l.1.3h.3a7.368,7.368,0,0,0,5.5-2.6,11.82,11.82,0,0,0,3.1-8.2c-.2-5.1-3.1-9.8-5.5-13.6-3.2-5.1-7.2-11.4-13.2-14.7a19.648,19.648,0,0,0-3.3-1.5,27.1,27.1,0,0,1-4.5-2.3,7.461,7.461,0,0,1-3.1-3.6,6.5,6.5,0,0,1,.2-5.1,10.859,10.859,0,0,1,6.1-5.6c3.4-1.3,7.1-1.3,10.8-1.3h3.6a48.414,48.414,0,0,0,33.6-15.5,10.511,10.511,0,0,0,5.4,5.6,15.543,15.543,0,0,0,12.5.2c6.8-3,11.2-9.7,14.7-15.1l.1-.1v-.2C958.7,462.6,954.1,457.1,947.3,454.4ZM811,383.8a78.728,78.728,0,0,1,2.2-10l29.2-2.5c4.3-.4,9.1-.8,13.2,1,5.5,2.4,9.4,8.7,9.8,16.1.4,6.8-1.9,13.7-3.8,19.7l-9.1,28.1a2.337,2.337,0,0,1-.7.7l-.1.1a5.01,5.01,0,0,1-.8.7c-.1.1-.2.1-.3.2-.2.2-.4.3-.5.4s-.2.1-.3.2c-.2.1-.3.2-.5.3-.1.1-.2.1-.4.2s-.3.2-.5.3c-.1.1-.3.1-.4.2-.2.1-.3.1-.5.2-.1,0-.3.1-.4.1-.2.1-.4.1-.5.2-.1,0-.3.1-.4.1a.367.367,0,0,0-.3.1l-.3-.3-.3.3-.1.1a2.2,2.2,0,0,0-.8.1,1.952,1.952,0,0,0-.7.1h-1.5c-.3,0-.7-.1-1-.1a1.268,1.268,0,0,1-.6-.1c-.4-.1-.7-.1-1.1-.2-.2,0-.3-.1-.5-.1l-1.2-.3c-.2,0-.3-.1-.5-.1-.4-.1-.9-.3-1.3-.4-.1,0-.2-.1-.3-.1-.5-.2-1-.3-1.6-.5H834c-.6-.2-1.1-.4-1.7-.6-.5-.2-1-.3-1.5-.5-.1,0-.2-.1-.3-.1-.5-.2-1-.3-1.5-.5-.1,0-.2-.1-.3-.1-.5-.2-1-.3-1.5-.5h0a8.33,8.33,0,0,0-1.5-.4c-.1,0-.2,0-.2-.1a8.333,8.333,0,0,1-1.5-.4.367.367,0,0,1-.3-.1l-1.5-.3h-.1c-.5-.1-1-.1-1.5-.2h-.2c-.5,0-1-.1-1.5-.1h-.3a10.868,10.868,0,0,0-1.8.1h-.1v-.6c0-.1-.1-.2-.1-.3v-.1c-.1-.1-.1-.3-.2-.4a.1.1,0,0,0-.1-.1c-.1-.1-.1-.2-.2-.3l-.1-.1c-.1-.1-.1-.2-.2-.3l-.1-.1-.3-.3c-.7-1-1.2-1.7-1-2.3a10,10,0,0,0,1.4-.8c1.4-.9,2.8-1.7,4-1.1l1.3.7-.7-1.3a15.377,15.377,0,0,1-1.4-3.6,1.883,1.883,0,0,1,.2-.8c4-2,7.7-3.8,12.4-1l.8.5v-.9c0-4.5,1.3-8.1,3.9-10.6l.1-.1c1-1.9-.4-4.4-1.5-6.4l-.3-.6c2.7-1.9,1.9-4.2,1.2-6.3-.6-1.6-1.1-3.2-.4-4.7l.4-.7H835a124.4,124.4,0,0,0-13.6,1c-1.1.1-2.1.2-3.2.3-.3,0-.6.1-.9.1a19.417,19.417,0,0,1-2.4.2c-.4,0-.8.1-1.2.1a14.083,14.083,0,0,1-2,.1h-2.9A96.135,96.135,0,0,0,811,383.8Zm23.4,71.8c-.3.7-.7,1.4-1,2.1,0,.1-.1.1-.1.2-.3.6-.5,1.3-.8,1.9a.6.6,0,0,0-.1.4l-.6,1.8c-.1.2-.1.4-.2.5-.2.5-.3,1.1-.5,1.6a6.386,6.386,0,0,0-.2.7c-.1.5-.3,1-.4,1.5-.1.3-.1.5-.2.8-.1.5-.2.9-.3,1.4a2.769,2.769,0,0,0-.1.9c-.1.4-.1.8-.2,1.3,0,.3-.1.6-.1.9,0,.4-.1.8-.1,1.2a3.4,3.4,0,0,1-.1,1v.5a.1.1,0,0,1-.1-.1c-.3-.2-.6-.5-.9-.7a.1.1,0,0,1-.1-.1,4.671,4.671,0,0,0-1-.5h0c-.3-.1-.7-.2-1-.3h-.1a3.4,3.4,0,0,0-1-.1h-.1a3.4,3.4,0,0,0-1,.1h-.2c-.3.1-.7.1-1,.2a.1.1,0,0,0-.1.1c-.3.1-.7.3-1,.4a.1.1,0,0,0-.1.1c-.4.2-.7.4-1.1.6l-.1.1a19.627,19.627,0,0,0-1.8,3.9c-.7,2-1.4,3.9-3,4.9l-.6.3-.2.1-1.5.6c-12.4,4.5-21.7-2.4-29.1-9.8l-.4-.4-.4.4a1.755,1.755,0,0,1-.5.4c-.1,0-.1.1-.2.1l-.3.3c-.1,0-.1.1-.2.1-.1.1-.2.1-.3.2-.1,0-.1.1-.2.1-.1.1-.2.1-.3.2-.1,0-.1.1-.2.1a.6.6,0,0,1-.4.1h-.1c-.2,0-.3.1-.5.1h-2.2c-.2,0-.3-.1-.5-.1h-.2c-.1,0-.2-.1-.3-.1h-.2c-.1,0-.2-.1-.3-.1s-.1,0-.2-.1h-.1l.6-.3c.1,0,.1-.1.2-.1.3-.1.6-.3.9-.4.1,0,.1-.1.2-.1.2-.1.4-.3.6-.4.1-.1.2-.1.3-.2.2-.1.3-.3.5-.4.1-.1.2-.2.3-.2.2-.1.3-.3.5-.4l.3-.3c.2-.2.3-.4.5-.6.1-.1.2-.2.2-.3a8.649,8.649,0,0,0,.7-1l.5-.8H782c-.6,0-.7-.3-1-1.2a2.268,2.268,0,0,0-1.1-1.6,97.047,97.047,0,0,0,8.2-11.5c.8-1.3,1.7-2.6,2.5-3.9l.6-.9v-.1c.1-.2.3-.4.4-.6.2-.2.3-.5.5-.7a.1.1,0,0,1,.1-.1c4.9-7,10.3-13,17.9-13.8h.1c.3,0,.6-.1.9-.1h2.4c.3,0,.6.1.8.1h.3a4.329,4.329,0,0,1,.5.1l-.1.3.9-.1.3.1.1-.1c5.4-.7,10.7,1.2,15.7,3,3.7,1.3,7.3,2.6,10.7,2.7h1.4l-.1.1h0a60.066,60.066,0,0,0-9.6,14Zm-17.9,31.6c.6,1,1.2,2,1.7,2.9.3.4.5.9.8,1.3a48.1,48.1,0,0,1,4.5,9.1c.5,1.5-.2,3.1-.9,4.8a10.034,10.034,0,0,0-1.1,4.1c0,1.4,0,2.8-.1,4.2,0,.5-.1,1-.1,1.4-.1.9-.1,1.8-.2,2.7-.1.6-.1,1.2-.2,1.8-.1.8-.2,1.6-.3,2.3l-.3,2.1c-.1.7-.2,1.3-.3,2a20.477,20.477,0,0,1-.5,2.4l-.3,1.5c-.2,1-.4,1.9-.7,2.9-.1.3-.1.5-.2.8a119.355,119.355,0,0,1-9,23.7l-.3.6c-.5,1.1-1.1,2.1-1.7,3.2-.2.4-.4.7-.6,1.1-.5.9-1,1.8-1.5,2.8-.2.4-.5.9-.7,1.3-.5.9-1.1,1.8-1.6,2.8-.2.4-.5.8-.7,1.2-.8,1.3-1.6,2.6-2.5,3.9-5.7,8.2-3.6,17.1-1.5,25.7a28.641,28.641,0,0,0,.7,2.8c.1.3.1.6.2.9s.1.7.2,1a.1.1,0,0,1-.1-.1,6.468,6.468,0,0,0-.9-.8h-.1a6.072,6.072,0,0,0-1-.7c-.1,0-.1-.1-.2-.1-.3-.2-.7-.4-1-.6-.1,0-.1-.1-.2-.1a3.7,3.7,0,0,0-1.1-.5.1.1,0,0,1-.1-.1,4.877,4.877,0,0,0-1.1-.4.1.1,0,0,1-.1-.1c-.4-.1-.7-.3-1.1-.4-.1,0-.1,0-.2-.1-.4-.1-.7-.2-1.1-.3-.1,0-.2,0-.2-.1-.4-.1-.7-.2-1.1-.3-3.1-.9-6-1.7-8.1-3.8l-.1-.1c-1.2-.6-1-2.9-.9-5.1a19.273,19.273,0,0,0,.1-2.4v-.7l-.7.3c-.5.2-.9.4-1.4.6-.1.1-.3.1-.4.2-.3.1-.6.3-.9.4a2.185,2.185,0,0,0-.5.3c-.3.1-.5.3-.8.4a2.09,2.09,0,0,0-.6.4c-.2.2-.5.3-.7.5-.2.1-.4.3-.6.4-.2.2-.5.3-.7.5a2.649,2.649,0,0,0-.6.5c-.2.2-.4.3-.6.5s-.4.3-.6.5-.4.3-.6.5a2.652,2.652,0,0,1-.6.5l-.6.6a2.652,2.652,0,0,0-.5.6,2.652,2.652,0,0,0-.5.6c-.2.2-.3.4-.5.6s-.3.4-.5.6a4.235,4.235,0,0,0-.5.7c-.2.2-.3.4-.5.6s-.3.5-.5.7a4.354,4.354,0,0,0-.4.7c-.1.2-.3.5-.4.7s-.3.5-.4.7-.3.5-.4.7-.3.5-.4.7a2.993,2.993,0,0,1-.4.8,2.993,2.993,0,0,1-.4.8c-.1.3-.2.5-.3.8a1.422,1.422,0,0,0-.2.6c-.1,0-.1-.1-.2-.1a15.374,15.374,0,0,1-1.3-1.2l-.2-.2-1.2-1.2c-2-2-3.9-3.9-6.9-4.7,1.9-2.2,3.6-5.8,3.6-7.8-.9-6.5-6.8-8.1-12.9-9.7-.8-.2-1.6-.4-2.3-.6l-.6-.3c-.1,0-.1-.1-.2-.1a.758.758,0,0,0-.4-.2c-.1,0-.1-.1-.2-.1-.1-.1-.2-.2-.3-.2l-.2-.2c-.1-.1-.2-.2-.3-.2l-.2-.2c-.1-.1-.2-.2-.2-.3l-.2-.2c-.1-.1-.1-.2-.2-.3l-.2-.2c-.1-.1-.1-.2-.2-.3,0-.1-.1-.1-.1-.2v-.1c.1,0,.1-.1.2-.1a.758.758,0,0,0,.4-.2c.2-.1.4-.1.6-.2.1-.1.3-.1.4-.2a2.185,2.185,0,0,0,.5-.3c.1-.1.3-.2.4-.3a1.755,1.755,0,0,0,.5-.4,1.38,1.38,0,0,1,.4-.3c.2-.1.3-.3.5-.4l.3-.3a1.756,1.756,0,0,0,.4-.5l.3-.3c.1-.2.3-.4.4-.6.1-.1.1-.2.2-.3a3.127,3.127,0,0,0,.5-1,7.7,7.7,0,0,0,.1-6.3c.5.2,1.1.5,1.7.8,1.6.8,3.2,1.6,4.6.9l.1-.1c1.8-1.8,2.1-5.8,1.5-7.1a1.2,1.2,0,0,0-.7-.7c-3.4-3-7.8-4.6-11.7-6.1-4.6-1.8-8.6-3.3-9.6-6.3-.7-2.3.4-5.5,3.4-9.8,7.5-9.6,13-17.2,17-27.8.9,0,3.1-.2,4-1.1l.1-.1v-.1c.2-.9.4-1.8.6-2.6.1-.3.1-.5.2-.8.2-.6.3-1.2.5-1.8l.3-.9c.2-.5.3-1.1.5-1.6a3.551,3.551,0,0,1,.4-.9c.2-.5.3-1,.5-1.4.1-.3.3-.6.4-.9.2-.5.4-.9.6-1.4.1-.3.3-.6.4-.9.2-.4.4-.9.6-1.3.2-.3.3-.6.5-.9a7.462,7.462,0,0,1,.7-1.2,4.052,4.052,0,0,0,.5-.9,10.543,10.543,0,0,1,.7-1.1l.6-.9c.2-.4.5-.7.7-1.1a5.5,5.5,0,0,1,.7-.9c.3-.3.5-.7.8-1,.2-.3.5-.5.7-.8.3-.3.5-.6.8-.9.2-.3.5-.5.7-.8l.9-.9a5.01,5.01,0,0,1,.8-.7,6.466,6.466,0,0,1,.9-.8,5.718,5.718,0,0,0,.8-.7c.3-.3.6-.5.9-.8a5.5,5.5,0,0,0,.9-.7,6.072,6.072,0,0,1,1-.7l.9-.6.9-.6h.1c.1,0,.2.1.3.1s.2.1.3.1.2.1.3.1.2.1.3.1.2.1.3.1a.367.367,0,0,1,.3.1c.1,0,.2.1.3.1a2317478927863.563,2317478927863.563,0,0,0,.6.2h3a1986410508895.238,1986410508895.238,0,0,0,.6-.2c.1,0,.2-.1.3-.1s.2,0,.2-.1c.1,0,.2-.1.3-.1a.349.349,0,0,0,.2-.1c.1-.1.2-.1.4-.2.1,0,.1-.1.2-.1.1-.1.3-.2.4-.3.1,0,.1-.1.2-.1a2.65,2.65,0,0,0,.6-.5l.9.9c.1.1.2.1.2.2.3.3.7.6,1,.9h.1a9.013,9.013,0,0,0,1,.9c.1.1.2.1.3.2.3.3.7.6,1,.9l.1.1a8.741,8.741,0,0,0,1,.8c.1.1.2.1.3.2.4.3.7.5,1.1.8.1,0,.1.1.2.1.3.2.7.5,1,.7.1.1.2.1.3.2.4.2.8.5,1.2.7.1,0,.1.1.2.1.3.2.7.4,1,.6.1.1.2.1.3.2l1.2.6c.1,0,.2.1.3.1a4.875,4.875,0,0,0,1.1.4c.1,0,.2.1.3.1a6.469,6.469,0,0,0,1.3.4c.1,0,.2.1.3.1.4.1.7.2,1.1.3.1,0,.2.1.3.1.4.1.9.2,1.4.3h.3a4.868,4.868,0,0,0,1.2.1h.3c.5,0,1,.1,1.4.1H808a1.268,1.268,0,0,0,.6-.1.9.9,0,0,0,.5-.1c.2,0,.4-.1.6-.1s.3-.1.5-.1.4-.1.7-.1c.2,0,.3-.1.5-.1.2-.1.5-.1.7-.2.2,0,.3-.1.5-.1l.9-.3c.1,0,.2-.1.3-.1a6.117,6.117,0,0,0,1.2-.5h0c.4.7.7,1.3,1.1,2C816.2,486.6,816.4,486.9,816.5,487.2ZM758.7,607.6c-.7.3-1.4.7-2.1,1a9.146,9.146,0,0,0-1.4.7c-.8.4-1.5.8-2.3,1.2a4.669,4.669,0,0,1-1,.5c-1.1.6-2.2,1.2-3.2,1.8a120.353,120.353,0,0,1-13.9,7l-.7.3.5.5a68.909,68.909,0,0,1,6.5,7.8,61.7,61.7,0,0,0,8.7,9.8,12.6,12.6,0,0,0-8.9,1.1c-6.4,3.5-8.9,13-10.8,20.5-.2.6-.3,1.2-.5,1.8l-.4-.4-1.3-1.3a9.019,9.019,0,0,0-1-.9c-.5-.4-.9-.9-1.4-1.3a9.019,9.019,0,0,0-1-.9c-.5-.5-1.1-1-1.7-1.5-.3-.2-.5-.5-.8-.7-.8-.7-1.6-1.4-2.5-2.1h0c-1.4-1.2-2.9-2.4-4.3-3.7l-1.4-1.2.6,1.7c.5,1.6.1,2.3-.4,2.7a8.436,8.436,0,0,1-3.3,1.6l-.3.1v2.1c-2.5-2.5-3.9-4.3-3-7.7l.1-.6-.6-.1a5.922,5.922,0,0,0-5,1.4c-2.6,2.5-2.1,7.7-1.8,11.9.1.8.1,1.6.2,2.3a4.508,4.508,0,0,0-3.9-.3,5.077,5.077,0,0,0-2.9,3.5,17.416,17.416,0,0,1-3.8-2.9c-1.8-1.7-3.5-3.2-5.5-3.1-1.3.1-2.5.9-3.8,2.4-3.2,4.2-3.1,10.4-2.1,14.5a60.129,60.129,0,0,0,4.9,10.3c2.5,4.5,4.8,8.8,5.4,12.7.6,4.2-.9,7.2-5,9.4a4.336,4.336,0,0,1-3.3.5c-3.5-1-6.5-6.5-9.2-11.4-1-1.8-1.9-3.6-2.8-4.9-.8-1.3-1.8-2.8-2.7-4.2-2.6-3.8-5.2-7.8-5.2-10.6a61.036,61.036,0,0,0-2.7-18.1h0l-.1-.3-.2-.8h0a74.16,74.16,0,0,0-14-24.2c-1.3-1.3-1.9-4-1.6-7.2.3-2.9,1.3-5.2,2.5-6,6.6-3.5,11.3-9,15.9-14.3a14.953,14.953,0,0,0,1.1-1.3h0c.4-.4.7-.8,1.1-1.2.1-.1.2-.2.2-.3.3-.3.6-.7.9-1a1.38,1.38,0,0,0,.3-.4c.3-.3.5-.6.8-.9l.4-.4c.2-.3.5-.5.7-.8l.5-.5.7-.7.5-.5a4.621,4.621,0,0,0,.7-.7c.2-.2.4-.3.6-.5s.5-.4.7-.6.4-.3.6-.5.5-.4.7-.6.4-.3.6-.5a3.038,3.038,0,0,1,.7-.5,1.612,1.612,0,0,1,.7-.4c.3-.2.5-.3.8-.5.2-.1.5-.3.7-.4.3-.2.5-.3.8-.5.2-.1.5-.3.7-.4.3-.1.5-.3.8-.4a2.506,2.506,0,0,0,.7-.4c.3-.1.6-.3.9-.4s.5-.2.8-.3a3.552,3.552,0,0,0,.9-.4c.3-.1.5-.2.8-.3a6.388,6.388,0,0,1,.7-.2v.1c0,.1,0,.2.1.2,0,.1.1.1.1.2s0,.1.1.2c0,.1.1.2.1.3a.1.1,0,0,0,.1.1c.1.1.1.2.2.3a.1.1,0,0,0,.1.1l.2.2.2.2h0a8.513,8.513,0,0,0,1.4.9c.3.1.7.3,1,.4.1,0,.2.1.4.1l.9.3c.1.1.3.1.4.2a4.178,4.178,0,0,1,1,.4c.1,0,.2.1.3.1a5.734,5.734,0,0,0,1.4.4c.1,0,.2.1.3.1.4.1.7.2,1.1.3.1,0,.3.1.4.1a4.254,4.254,0,0,0,1.1.2c.1,0,.3.1.4.1a7.847,7.847,0,0,0,1.4.2h.1c.4,0,.9.1,1.3.1h1.1c.3,0,.7-.1,1-.1a.367.367,0,0,0,.3-.1,1.445,1.445,0,0,0,.7-.2c.1,0,.2,0,.2-.1l.9-.3c.1,0,.1-.1.2-.1a2.506,2.506,0,0,0,.7-.4c.1-.1.2-.1.2-.2.3-.2.5-.4.8-.6,1.9-1.2,3-3.8,4-6.1a13.913,13.913,0,0,1,2.1-3.9c5.4-5.4,16.2-9,25.4-4.9h.2c.7,0,1.2-.8,1.7-1.7.1-.1.1-.2.2-.4v-.1c.1-.1.1-.2.2-.3h0a3.346,3.346,0,0,1,1.5-1.4c0,.1.1.1.1.2.1.1.1.2.2.3s.1.2.2.4c.1.1.1.2.2.3s.2.2.2.3c.1.1.1.2.2.2l.3.3.2.2.3.3.2.2a1.38,1.38,0,0,0,.4.3l.2.2a2.185,2.185,0,0,0,.5.3c.1,0,.1.1.2.1a5.946,5.946,0,0,0,.8.4c.8.2,1.6.5,2.4.7,6.1,1.6,11.4,3.1,12.2,8.9,0,1.9-1.9,5.7-3.9,7.6l-.7.7.9.2c3.2.6,5.1,2.5,7.2,4.7l1.2,1.2.3.3c.4.4.9.8,1.3,1.2l.1.1a14.17,14.17,0,0,0-1.8.8A5.48,5.48,0,0,1,758.7,607.6Zm33.2-196.4c4.4-1.7,9.4-3.8,12.5-7.8a29.373,29.373,0,0,0,4.1-8.6,10.868,10.868,0,0,0,1.8-.1h1.4c.7,0,1.3-.1,2-.1.4,0,.9-.1,1.3-.1.7-.1,1.4-.1,2.1-.2.4,0,.8-.1,1.2-.1a31.071,31.071,0,0,0,3.2-.4c4.2-.5,8.5-.9,12.7-1a7.454,7.454,0,0,0,.6,4.7c.8,2.1,1.4,3.8-1.1,5.3l-.4.2.2.4c.2.3.3.7.5,1,1,1.8,2.1,4,1.5,5.5a15.559,15.559,0,0,0-4.1,10.4c-4.9-2.5-8.9-.5-12.7,1.4l-.1.1c-1.1,1.1-.4,2.8.4,4.6-1.4-.1-2.6.7-3.8,1.5l-1.5.9-.1.1-.1.1c-.6,1.3.3,2.5,1,3.5a2.18,2.18,0,0,0,.4.5l.1.1c.1.2.2.3.3.5v.1c.1.2.1.3.2.4h0c0,.1.1.3,0,.4h0c-.2,0-.4-.1-.6-.1a.6.6,0,0,1-.4-.1c-.3,0-.6-.1-1-.1h-.2c-.4,0-.8-.1-1.2-.1h-1.5a2.2,2.2,0,0,0-.8.1h-.3c-.3,0-.6.1-.8.1h-.2c-.3.1-.6.1-.9.2h-.1c-6.8,1.7-11.8,7.3-16.2,13.7-.1.1-.1.2-.2.2a1.755,1.755,0,0,1-.4.5,12.128,12.128,0,0,1-1,1.4h0a.1.1,0,0,1-.1-.1c-.1-.1-.2-.1-.3-.2l-.1-.1-.2-.2-.1-.1c-.1-.1-.1-.1-.1-.2a.31.31,0,0,1,.1-.2l-.7-.7-2.6,2.6-2.2-2.2a48.426,48.426,0,0,0,6.2-4.3c1.1-.9,2.2-1.7,3.2-2.4l1.1-.7-1.2-.2c-5.5-.9-7.6-3.5-7.6-9.5v-1.9l-.9,1.6c-2.4,4.3-6.1,3.8-10.6,3.1a30.662,30.662,0,0,0-7.5-.4,29.675,29.675,0,0,1,.1-7.9c0-.3.1-.7.1-1V425a2.486,2.486,0,0,1,.1-.8v-4.6a1.269,1.269,0,0,0-.1-.6.9.9,0,0,0-.1-.5v-.4A121.657,121.657,0,0,0,791.9,411.2ZM739.3,450l1.5.2-1-1a24.054,24.054,0,0,1-6.5-21.8l.2-.8-.8.2a6.981,6.981,0,0,1-7.4-3.6,181.806,181.806,0,0,0,40.2-4.2v.3a.9.9,0,0,0,.1.5v5.3a1.269,1.269,0,0,1-.1.6v.4c0,.3-.1.6-.1,1a35.326,35.326,0,0,0,0,8.6l.1.5.5-.1a27.847,27.847,0,0,1,7.7.4c4.1.6,8,1.1,10.7-2.3.4,5,2.5,7.6,7.2,8.7-.8.6-1.5,1.2-2.3,1.8a40.244,40.244,0,0,1-6.6,4.5l-.6.3,3.8,3.8,2.5-2.5c.1.1.2.3.3.4l.1.1.3.3h0c.1.1.2.1.3.2-.7,1.1-1.5,2.3-2.2,3.4a105.17,105.17,0,0,1-7.5,10.7c-.4.4-.7.9-1.1,1.3l-.8.8h1.1c.6,0,.7.3,1,1.2a2.682,2.682,0,0,0,1.1,1.7,5.551,5.551,0,0,1-.6.8c-.1.1-.1.2-.2.2-.1.2-.3.3-.4.5-.1.1-.2.2-.3.2-.1.1-.3.2-.4.3s-.2.2-.3.2c-.1.1-.3.2-.4.3s-.2.1-.3.2a.758.758,0,0,1-.4.2c-.1.1-.3.1-.4.2s-.3.1-.4.2-.3.1-.4.2c-.2.1-.3.1-.5.2s-.3.1-.5.2c-.1,0-.2.1-.3.1-.2-.2-.3-.4-.5-.5-.2-.2-.3-.4-.5-.6l-.6-.6c-.2-.2-.3-.4-.5-.5l-.6-.6-.5-.5c-.2-.2-.4-.3-.6-.5-.2-.1-.3-.3-.5-.4-.2-.2-.4-.3-.6-.5-.2-.1-.3-.2-.5-.3a4.349,4.349,0,0,0-.7-.4c-.2-.1-.3-.2-.5-.3s-.5-.2-.7-.3c-.1-.1-.3-.1-.4-.2-.2-.1-.5-.2-.7-.3-.1-.1-.3-.1-.4-.2a1.854,1.854,0,0,0-.7-.2c-.1,0-.3-.1-.4-.1-.3-.1-.5-.1-.8-.2-.1,0-.3-.1-.4-.1-.3,0-.5-.1-.8-.1a.756.756,0,0,1-.4-.1,2.2,2.2,0,0,1-.8-.1h-2.6c-.3,0-.6.1-.9.1h-.3a2.92,2.92,0,0,0-.9.2.367.367,0,0,0-.3.1c-.3.1-.6.1-.9.2a.367.367,0,0,0-.3.1l-.9.3c-.1,0-.2,0-.2.1l-.9.3c-.1,0-.2,0-.2.1a3.554,3.554,0,0,0-.9.4c-.1,0-.1.1-.2.1-.3.1-.6.3-.9.4-.1,0-.1.1-.2.1a10.371,10.371,0,0,1-1,.4c-.1,0-.1.1-.2.1a9.288,9.288,0,0,1-1,.5c-.1,0-.1.1-.2.1-.3.2-.7.3-1,.5-.1,0-.1.1-.2.1a3.128,3.128,0,0,1-1,.5c-.1,0-.1.1-.2.1-.3.2-.6.3-.9.5a.349.349,0,0,0-.2.1,4.052,4.052,0,0,1-.9.5c-.1,0-.1.1-.2.1l-.9.6c-.1,0-.1.1-.2.1-.3.2-.5.3-.8.5-.1.1-.2.1-.3.2-.3.2-.5.3-.8.5-.1.1-.2.1-.3.2-.3.2-.5.3-.8.5-.1.1-.2.1-.3.2-.3.2-.7.5-1,.7-2.8-4.3-6.9-6.3-10.6-8.1-.4-.2-.9-.4-1.3-.6-.8-.8-2-.5-3.3-.3-.2,0-.5.1-.7.1h0C724.8,461.5,729.4,448.9,739.3,450ZM662.9,571.3l32-51c2.5-3.9,5.3-7.6,9.2-7.9a11.331,11.331,0,0,1,2.6.1,11.361,11.361,0,0,0,4.1-.1c3.6-1.1,4.8-5.3,5.5-8.9l6.1-32.2c.2-.9.4-1.8.6-2.6h.2a3.553,3.553,0,0,0,1-.2,7.719,7.719,0,0,1,1.5-.2,1.493,1.493,0,0,1,1,.3l.1.1a8.262,8.262,0,0,1,1.3.7c3.7,1.8,7.9,3.8,10.4,8.1l.3.4.4-.3c.4-.3.8-.5,1.2-.8l2.4-1.5h.1c.3-.2.7-.4,1-.6.1,0,.1-.1.2-.1l.9-.6c.1-.1.2-.1.3-.2.3-.2.6-.3.9-.5.1-.1.2-.1.3-.2.3-.2.6-.3.9-.5.1-.1.2-.1.3-.2a5.583,5.583,0,0,0,.8-.5c.1-.1.2-.1.3-.2.3-.1.5-.3.8-.4.1-.1.2-.1.4-.2.3-.1.5-.3.8-.4.1-.1.2-.1.4-.2.3-.1.5-.2.8-.3.1-.1.3-.1.4-.2.2-.1.5-.2.7-.3.1-.1.3-.1.4-.2.2-.1.5-.2.7-.3.1,0,.3-.1.4-.1.2-.1.5-.1.7-.2.1,0,.3-.1.4-.1.2-.1.5-.1.7-.2.1,0,.3-.1.4-.1a1.483,1.483,0,0,1,.7-.1c.1,0,.3-.1.4-.1.2,0,.4-.1.6-.1a.9.9,0,0,0,.5-.1,1.268,1.268,0,0,0,.6-.1h2.7a1.268,1.268,0,0,1,.6.1.9.9,0,0,1,.5.1c.2,0,.4.1.6.1s.3.1.5.1.4.1.6.1.3.1.5.1c.2.1.4.1.5.2.2.1.3.1.5.2s.4.1.5.2c.2.1.3.1.5.2s.3.2.5.3.3.2.5.3.3.2.5.3.3.2.5.3a7216408607333.386,7216408607333.386,0,0,1,1,.8c.2.1.3.3.5.4s.3.3.5.4.3.3.5.4l.5.5.5.5c.2.2.3.4.5.5.2.2.3.4.5.5.1.1.1.2.2.3l-.7.2.5.2c-.1.1-.3.2-.4.3a6.07,6.07,0,0,0-1,.7c-.3.2-.7.5-1,.7s-.6.5-.9.7c-.3.3-.6.5-.9.8a6.475,6.475,0,0,0-.9.8,6.466,6.466,0,0,1-.9.8,6.035,6.035,0,0,0-.8.8,6.471,6.471,0,0,0-.8.9l-.8.8c-.3.3-.5.6-.8.9-.2.3-.5.6-.7.9-.3.3-.5.7-.8,1-.2.3-.5.6-.7.9s-.5.7-.7,1l-.6.9c-.2.4-.5.7-.7,1.1l-.6.9-.6,1.2a3.127,3.127,0,0,0-.5,1l-.6,1.2c-.2.3-.3.7-.5,1-.2.4-.4.9-.6,1.3-.1.3-.3.7-.4,1a7.835,7.835,0,0,0-.5,1.4c-.1.3-.3.7-.4,1-.2.5-.3,1-.5,1.5-.1.3-.2.6-.3,1-.2.6-.3,1.1-.5,1.7a2.354,2.354,0,0,0-.2.8c-.2.9-.4,1.7-.6,2.6a6.708,6.708,0,0,1-3.5.8H750l-.1.3c-3.9,10.6-9.5,18.3-16.9,27.9-3.2,4.6-4.4,8-3.6,10.7a6.446,6.446,0,0,0,1.8,2.8c1.9,1.7,5,2.9,8.3,4.2a67.465,67.465,0,0,1,7.5,3.2,22.113,22.113,0,0,1,4,2.8l.1.1h.1a2.979,2.979,0,0,1,.2,1.4c0,1.5-.4,3.6-1.5,4.7-.9.4-2.3-.3-3.6-1a6.849,6.849,0,0,0-3.1-1.1h-.9l.5.8a6.421,6.421,0,0,1,.3,6.3,8.476,8.476,0,0,1-6,4.9h0a.9.9,0,0,0-.5.1h-.1a6.079,6.079,0,0,0-2.4,2.6c-.3.4-.6,1.1-.8,1.2-9.6-4.2-20.8-.5-26.4,5.2a13.641,13.641,0,0,0-2.3,4.2c-.9,2.2-2,4.6-3.7,5.8-3.9,3.9-12.4.5-16.5-1.1a2.739,2.739,0,0,1-2-2.5c-.1-2.1,1.8-5.4,5.2-8.7l.4-.4-.5-.3c-7.9-4.9-14.7-4.1-23.4-3.2l-.9.1a3.007,3.007,0,0,1-1.4-.7l-.6-.3c-.1,0-.1-.1-.2-.1-.2-.1-.3-.2-.5-.2a.349.349,0,0,1-.2-.1,1.422,1.422,0,0,0-.6-.2c-.1,0-.1,0-.2-.1h0C660.5,575.1,661.7,573.2,662.9,571.3Zm-24,142.1a11.073,11.073,0,0,0-4.6-1.1,10.474,10.474,0,0,0-3,.5c-2.8,1-4.9,3.3-6.9,5.5-2.1,2.3-4.1,4.6-7,5.3-4.7,1.3-9.6-2.4-12-6.7a37.265,37.265,0,0,1-3.2-8.4,42.662,42.662,0,0,0-2.1-6,32.555,32.555,0,0,0-23.7-19c8.2-5.9,4-19.8,1.8-25.7a11.82,11.82,0,0,0-2.9-4.9,5.739,5.739,0,0,0-4.7-1.5c-3.8.4-7.8,3.8-10.5,7a27.462,27.462,0,0,1-4.9-16.9v-.4l-14.5-2.4L594.5,582c2.4-2.5,4.6-4.6,7.4-5,5.1-.8,8.3,3.7,11.8,8.5a36.824,36.824,0,0,0,5.3,6.4c7.2,6.7,18.6,5.2,26.1.4,6-3.9,10.4-9.6,13.6-14.3a.367.367,0,0,1,.3.1.367.367,0,0,1,.3.1.758.758,0,0,1,.4.2.349.349,0,0,1,.2.1c.2.1.3.2.5.2.1,0,.1.1.2.1l.6.3a5.192,5.192,0,0,0,2,.8h0l.9-.1c8.3-.9,14.8-1.7,22.2,2.7-1.8,1.9-4.9,5.5-5,8.6h0c-.3.1-.5.2-.8.3l-.9.3a3.552,3.552,0,0,0-.9.4,6.892,6.892,0,0,0-.8.3c-.3.1-.6.3-.9.4a2.993,2.993,0,0,0-.8.4,5.932,5.932,0,0,0-.8.4c-.3.1-.5.3-.8.4-.3.2-.5.3-.8.5-.2.1-.5.3-.7.4-.3.2-.5.3-.8.5-.2.2-.5.3-.7.5-.3.2-.5.4-.8.6-.2.2-.4.3-.6.5a4.354,4.354,0,0,0-.7.6c-.2.2-.4.3-.6.5a2.337,2.337,0,0,0-.7.7c-.2.2-.4.3-.5.5-.3.2-.5.5-.8.7l-.5.5-.8.8-.4.4a6.468,6.468,0,0,0-.8.9,1.38,1.38,0,0,0-.3.4c-.3.3-.6.7-.9,1-.1.1-.1.2-.2.2-.4.4-.7.8-1.1,1.2v.1c-.8.9-1.5,1.7-2.2,2.6-4.5,5.2-9.2,10.7-15.7,14.1-1.8,1.2-2.7,4.3-3,6.8-.3,2.7.1,6.2,1.8,7.9l2.4,3,.6.9c.5.7,1.1,1.4,1.6,2.1a6.73,6.73,0,0,1,.7,1.1c.4.6.9,1.3,1.3,1.9.3.4.5.8.8,1.2.4.6.7,1.2,1.1,1.8a8.27,8.27,0,0,1,.7,1.3c.3.6.6,1.1.9,1.7a9.146,9.146,0,0,0,.7,1.4c.3.6.5,1.1.8,1.7l.6,1.5c.2.6.5,1.1.7,1.7a8.8,8.8,0,0,1,.5,1.5,8.8,8.8,0,0,1,.5,1.5c-.1.1-.2.2-.2.3l-.4.4c-.1.1-.2.3-.3.4a2.182,2.182,0,0,0-.4.5c-.1.1-.2.3-.3.4-.1.2-.3.3-.4.5-.1.1-.2.3-.3.4a1.755,1.755,0,0,1-.4.5c-.1.1-.2.3-.3.4-.1.2-.2.3-.3.5s-.2.3-.3.5-.2.3-.3.5-.2.3-.3.5-.2.3-.3.5-.2.3-.3.5-.2.3-.3.5a2.185,2.185,0,0,1-.3.5c-.1.2-.2.3-.2.5a1.691,1.691,0,0,0-.2.5c-.1.2-.1.3-.2.5s-.1.4-.2.6-.1.3-.2.5-.1.4-.2.6-.1.3-.2.5-.1.4-.2.6c0,.2-.1.3-.1.5a1.269,1.269,0,0,0-.1.6c0,.2-.1.3-.1.5s-.1.4-.1.6-.1.3-.1.5-.1.4-.1.6a.9.9,0,0,1-.1.5,1.268,1.268,0,0,1-.1.6v4a1.953,1.953,0,0,0,.1.7.9.9,0,0,0,.1.5c0,.2.1.4.1.7,0,.2.1.3.1.5s.1.4.1.7c0,.2.1.3.1.5a6.388,6.388,0,0,1,.2.7c0,.2.1.3.1.5a6.388,6.388,0,0,1,.2.7c.1.2.1.3.2.5a4.877,4.877,0,0,1,.3.7c.1.2.1.3.2.5a4.877,4.877,0,0,1,.3.7c.1.2.1.3.2.5a4.877,4.877,0,0,1,.3.7c.1.2.2.3.2.5a4.354,4.354,0,0,1,.4.7c.1.1.2.3.3.4.1.2.3.4.5.7.1.1.2.3.3.4.2.2.4.5.6.7l.3.3c.3.3.6.7.9,1,.8.8.9,5.6-.1,8.5-.6,1.9.5,3.8,1.4,5.2.3.5.9,1.5.8,1.6l-.1.1v.1c-.3.9-.6,1.7-.9,2.5-.1.3-.2.5-.3.8a11.114,11.114,0,0,1-.7,1.6c-.1.3-.3.6-.4.9-.2.4-.4.9-.6,1.3-.2.3-.3.6-.5.9a4.129,4.129,0,0,1-.7,1.1,3.507,3.507,0,0,0-.5.8c-.2.3-.5.7-.7,1s-.4.5-.6.8-.5.6-.7.9c-.2.2-.4.5-.6.7a6.035,6.035,0,0,1-.8.8,4.347,4.347,0,0,1-.7.6c-.2.1-.3.3-.5.4a19.736,19.736,0,0,0-.7-2.6A17.7,17.7,0,0,0,638.9,713.4Zm112-19.1c-3.9,5-7.9,10.2-13.8,11.2a6.757,6.757,0,0,0-3.8-3.4,10.3,10.3,0,0,0-7.9.3c-4.1,2-6.8,6.2-8.9,9.6l-.2.3.3.3c5.9,6,11.3,11.9,11.7,19.4.6,10.7-9.7,18.7-15.9,22.4-1.7,1-3.5,2.1-5.3,3.1-6.8,3.9-13.9,7.9-18.2,14.5l-.3.5.5.2a34.88,34.88,0,0,1,11,8.1,37.812,37.812,0,0,0-16.9,20.6,100.986,100.986,0,0,1-27.1-24.2c-2.9-3.7-5.2-9.9-4-14.1a5.218,5.218,0,0,1,3.6-3.6l1.1-.4-1-.6c-6.6-3.5-7.7-12.7-7.8-16.4-.1-1.9,0-3.8,0-5.7a56.92,56.92,0,0,0-.4-10.1c.2-.2.5-.4.7-.6s.5-.4.7-.6a6.035,6.035,0,0,1,.8-.8,4.621,4.621,0,0,1,.7-.7,8.741,8.741,0,0,0,.8-1c.2-.3.4-.5.6-.8a6.73,6.73,0,0,0,.7-1.1,3.507,3.507,0,0,0,.5-.8,5.389,5.389,0,0,0,.7-1.3c.2-.3.3-.5.5-.8a10.1,10.1,0,0,0,.7-1.5c.1-.3.3-.5.4-.8.3-.6.5-1.2.8-1.8a4.877,4.877,0,0,0,.3-.7c.3-.8.7-1.7,1-2.6.6-.7,0-1.7-.7-2.8-.8-1.3-1.8-2.9-1.3-4.3,1-3,1.1-8.3-.1-9.5a7.008,7.008,0,0,1-.8-1c-.1-.1-.2-.2-.2-.3a3.038,3.038,0,0,1-.5-.7c-.1-.1-.2-.3-.3-.4-.1-.2-.3-.4-.4-.6-.1-.1-.2-.3-.3-.4-.1-.2-.3-.4-.4-.6a.758.758,0,0,1-.2-.4l-.3-.6c-.1-.2-.1-.3-.2-.5l-.3-.6c-.1-.2-.1-.3-.2-.5a1.422,1.422,0,0,1-.2-.6c-.1-.2-.1-.3-.2-.5s-.1-.4-.2-.6a.9.9,0,0,1-.1-.5c-.1-.2-.1-.4-.2-.6,0-.2-.1-.3-.1-.5s-.1-.4-.1-.6-.1-.3-.1-.5-.1-.4-.1-.6a.9.9,0,0,0-.1-.5,1.268,1.268,0,0,0-.1-.6v-3.8a1.268,1.268,0,0,1,.1-.6.9.9,0,0,1,.1-.5c0-.2.1-.4.1-.6s.1-.3.1-.5.1-.4.1-.6.1-.3.1-.5.1-.4.1-.6.1-.3.1-.5c.1-.2.1-.4.2-.5,0-.2.1-.3.2-.5s.1-.4.2-.5c.1-.2.1-.3.2-.5s.1-.4.2-.5c.1-.2.1-.3.2-.5a1.691,1.691,0,0,0,.2-.5c.1-.2.1-.3.2-.5a2.185,2.185,0,0,1,.3-.5c.1-.1.1-.3.2-.4a2.185,2.185,0,0,1,.3-.5.758.758,0,0,0,.2-.4c.1-.2.2-.3.3-.5a.758.758,0,0,0,.2-.4c.1-.2.2-.3.3-.5.1-.1.2-.3.3-.4a1.755,1.755,0,0,1,.4-.5,1.38,1.38,0,0,0,.3-.4c.1-.2.3-.3.4-.5l.3-.3c.1-.2.3-.3.4-.5l.3-.3c.1-.2.3-.3.4-.5l.3-.3.1-.1c.1.2.1.5.2.7.1.3.2.7.3,1l.3,1.2a3.554,3.554,0,0,1,.2,1l.3,1.2c.1.3.1.7.2,1,.1.4.1.8.2,1.2.1.3.1.7.2,1,.1.4.1.8.2,1.3,0,.3.1.6.1,1s.1.9.1,1.3c0,.3.1.6.1.9,0,.5.1,1,.1,1.5v3.1a4.87,4.87,0,0,0,.1,1.2c.6,2.9,2.9,6.5,5.3,9.9.9,1.4,1.9,2.8,2.7,4.2.9,1.3,1.8,3,2.8,4.8,2.7,5.1,5.9,10.8,9.8,11.9.3.1.6.1.9.2h.4a4.529,4.529,0,0,0,1.6-.3c.1,0,.1,0,.2-.1a3.552,3.552,0,0,0,.9-.4c4.4-2.4,6.2-5.8,5.5-10.4-.6-4-3-8.4-5.5-13a76.315,76.315,0,0,1-4.8-10.1c-1-3.8-1-9.7,1.9-13.6a4.835,4.835,0,0,1,3.1-2c1.6-.1,3.1,1.3,4.8,2.8a16.251,16.251,0,0,0,4.6,3.3l.5.2.1-.6c.4-1.8,1.3-3,2.5-3.4a4.256,4.256,0,0,1,3.8.7l.8.5v-.9c0-.9-.1-2.1-.2-3.3-.3-3.8-.8-8.9,1.5-11.1a4.607,4.607,0,0,1,3.6-1.1c-.7,3.9,1.4,6,4.3,8.9l.9.9v-3.8l.9-.3c.1,0,.2-.1.4-.2s.3-.1.5-.2.3-.1.4-.2.2-.1.3-.2.3-.2.4-.3.2-.1.3-.2l.2-.2.1-.1.2-.2c.1-.1.2-.2.2-.3s.1-.2.1-.3c.1-.1.1-.2.1-.4,0-.1.1-.2.1-.3,0-.2.1-.4.1-.6v-.1c1.1.9,2.1,1.8,3.2,2.7h0a26.218,26.218,0,0,1,2.5,2.2c.3.3.6.5.9.8.6.5,1.1,1,1.7,1.5.3.3.7.6,1,.9.5.5,1,.9,1.5,1.4a9.019,9.019,0,0,0,1,.9l1.5,1.5.9.9.9.9c.3.4.7.8,1,1.2.3.3.5.6.8.9a11.32,11.32,0,0,1,1,1.3c.2.3.4.5.6.8l1.5,2.1c2.4,4.3,5.5,7.4,8.6,10.5a15.383,15.383,0,0,1,1.2,1.3l.4.4.9.9a1.756,1.756,0,0,1,.4.5c.2.3.5.5.7.8.2.2.3.4.5.6.2.3.4.5.6.8.2.2.3.4.5.6.2.3.4.5.6.8a4.235,4.235,0,0,1,.5.7,3.507,3.507,0,0,1,.5.8,2.507,2.507,0,0,1,.4.7c.2.3.3.5.5.8a5.946,5.946,0,0,1,.4.8c.1.3.3.5.4.8A5.48,5.48,0,0,0,750.9,694.3Zm22.5-18.6-.6-.2-1,8.8c-6-3.1-13.5,1.2-18.4,6.9l-.3-.6c-.1-.3-.3-.5-.4-.8-.2-.3-.3-.6-.5-.9-.1-.2-.3-.5-.4-.7-.2-.3-.4-.5-.6-.8a4.235,4.235,0,0,1-.5-.7c-.2-.3-.4-.5-.6-.8-.2-.2-.3-.4-.5-.6a5.01,5.01,0,0,0-.7-.8c-.2-.2-.3-.4-.5-.6-.2-.3-.5-.5-.7-.8-.2-.2-.3-.4-.5-.5a6.035,6.035,0,0,0-.8-.8l-.4-.4a15.383,15.383,0,0,1-1.2-1.3c-3-3-6.1-6.1-8.4-10.3-.5-.7-1-1.5-1.5-2.2a3.038,3.038,0,0,1-.5-.7c-.4-.5-.7-.9-1.1-1.4a5.01,5.01,0,0,0-.7-.8c-.4-.4-.7-.9-1.1-1.3-.2-.3-.5-.5-.7-.8l-.3-.3a.367.367,0,0,1,.1-.3l.6-2.1c1.9-7.4,4.3-16.6,10.4-19.9,2.9-1.6,6.3-1.7,10.4-.4l3,.9-2.5-1.8c-4.1-3-7.3-7.1-10.3-11.1a85.553,85.553,0,0,0-6.1-7.4c4.8-2,9.1-4.4,13.4-6.7a125.138,125.138,0,0,1,13.7-6.9l.3.2.2-.4.6-.2-.4-.3c3.1-8,8.8-14.2,15.9-17.1,0,.5-.1,1.1-.1,1.6a26.209,26.209,0,0,0-.1,2.8c0,1.5.4,2.7,1.4,3.3a14.337,14.337,0,0,0,6.2,3.3c.8.2,1.5.5,2.3.7.5.1.9.3,1.4.4h0c.2.1.5.1.7.2h0c.2.1.5.1.7.2h.1c.2.1.4.1.6.2a.1.1,0,0,1,.1.1c.2.1.4.1.6.2.1,0,.1,0,.2.1.2.1.3.1.5.2.1,0,.1.1.2.1.2.1.3.1.5.2a.349.349,0,0,1,.2.1c.1.1.3.1.4.2a.349.349,0,0,1,.2.1.758.758,0,0,0,.4.2c.1.1.2.1.2.2.1.1.3.2.4.3s.2.1.2.2a1.38,1.38,0,0,0,.4.3c.1.1.2.1.3.2l.3.3.2.2.3.3c.1.1.2.2.2.3l.3.3c.1.1.2.2.2.3l.3.3c.1.2.1.4.2.5,0,.2.1.3.1.5.1.2.1.4.2.6,0,.1.1.3.1.4.1.2.1.3.2.5.2.4.3.8.5,1.2.5,1.1.9,2.2,1.4,3.6a5.819,5.819,0,0,1,.3,2.6,4.572,4.572,0,0,1-1.4,2,3.915,3.915,0,0,0-.8,1c-2.1,2.8-1.7,6.6-.5,9.2a31.724,31.724,0,0,0,3.9,6.1c.4.5.8,1.1,1.2,1.6,1.6,2.1,3.4,4.9,3.5,8,0,1.1-.1,2.2-.2,3.3-.3,2.4-.6,4.8.8,6.8a10.4,10.4,0,0,0,3.6,2.6A7.874,7.874,0,0,1,816,659c1,1.4.9,3.1.9,5v7.1c0,.1.1.2.1.4a.367.367,0,0,0,.1.3c0,.1.1.2.1.4a.349.349,0,0,0,.1.2v.1A58.218,58.218,0,0,1,773.4,675.7Zm93.4-100.5c1-.9,2.9-.9,5.8-.6,3,.3,5.5,1.8,6.2,3.5a3.01,3.01,0,0,1-1,3.3,11.511,11.511,0,0,1-1.7,1.4,6.856,6.856,0,0,0-2.7,2.9c-.9,1.9-.2,4.1.6,6.1l6.9,17.5.5-.9a4.038,4.038,0,0,1,4-1.8,7.056,7.056,0,0,1,5.7,4.2c1.5,4-.3,8.5-2.4,12.7a165.833,165.833,0,0,1-46.4,56.8,7.912,7.912,0,0,1-4.3,2.1c-3,.2-4.7-2.6-6.6-5.5-1.8-2.9-3.6-5.8-6.8-6.4a3.752,3.752,0,0,0-1-.1,12.336,12.336,0,0,0-5.6,1.8h0c0-.1,0-.1-.1-.2,0-.1-.1-.2-.1-.3s0-.1-.1-.2a.367.367,0,0,0-.1-.3v-3a14.722,14.722,0,0,0,0-2.1v-1.5c0-1.9.1-3.9-1.1-5.5a8.086,8.086,0,0,0-3.7-2.6,6.979,6.979,0,0,1-3.2-2.3c-1.2-1.7-.9-3.8-.7-6.1.1-1.1.3-2.3.3-3.5-.1-3.4-2-6.4-3.7-8.6-.4-.5-.8-1.1-1.2-1.6a28.274,28.274,0,0,1-3.8-5.9c-1-2.4-1.5-5.8.4-8.2a6.475,6.475,0,0,1,.8-.9,5.147,5.147,0,0,0,1.6-2.5,5.355,5.355,0,0,0-.3-3.1,23.5,23.5,0,0,0-1.4-3.8c-.5-1.1-.9-2.2-1.4-3.6-.4-2.2-.9-4.5-1.5-6.7-2.1-8.8-4.1-17.1,1.4-24.9.9-1.3,1.7-2.6,2.5-3.9.2-.4.5-.8.7-1.2.6-.9,1.1-1.9,1.6-2.8.2-.4.5-.8.7-1.3.5-1,1.1-1.9,1.6-2.9a4.669,4.669,0,0,0,.5-1c.6-1.2,1.2-2.3,1.8-3.5.1-.1.1-.2.2-.3,1.9-3.8,3.6-7.7,5.1-11.4.1,0,.3.1.4.1a1.446,1.446,0,0,0,.7.2,1.422,1.422,0,0,0,.6.2,1.446,1.446,0,0,0,.7.2,1.422,1.422,0,0,0,.6.2,4.877,4.877,0,0,0,.7.3l.6.3.6.3.6.3.6.3.6.3.6.3a2.09,2.09,0,0,1,.6.4,4.556,4.556,0,0,1,1,.7,1.755,1.755,0,0,1,.5.4c.2.1.3.3.5.4l.4.4c.2.1.3.3.5.5l.4.4c.1.2.3.3.4.5.1.1.2.3.3.4l.3.6c.1.1.2.3.3.4l.3.6c.1.2.1.3.2.5s.1.5.2.7c0,.2.1.3.1.5,0,.3.1.5.1.8v.4a5.7,5.7,0,0,1-.1,1.3l-.3,2.1,1.2-1.8c2.9-4.4,7.7-8.8,10.6-8.3a3.267,3.267,0,0,1,2.3,2.5c.1.2.1.4.2.6v.1c5.3,12.6,11,18.8,22.8,24.7l.8.4h0l1.2.6-1.2-1.6C865.9,576.9,866.2,575.8,866.8,575.2Zm15.8-61c5.8,3.1,9.6,9.1,12.9,14.3,2.4,3.9,5.2,8.3,5.4,13.1a10.757,10.757,0,0,1-2.8,7.5,6.6,6.6,0,0,1-4.5,2.3,24.976,24.976,0,0,0-24.9-12.7l-.5.1.1.5a20.825,20.825,0,0,0,9.7,13.3,65.731,65.731,0,0,1-3.6,6.1c-1,1.7-2.1,3.4-3.2,5.4a6.824,6.824,0,0,0-4.5-4.4,10.748,10.748,0,0,0-10.9,2.4l-.2.2.1.3c1.4,5.7,4.6,10.1,8.1,14.7-.1-.1-.2-.1-.4-.2-.3-.2-.6-.3-.9-.5s-.7-.4-1-.6-.5-.3-.8-.5a8.782,8.782,0,0,0-1-.6c-.2-.2-.5-.3-.7-.5l-.9-.6a4.235,4.235,0,0,0-.7-.5c-.3-.2-.6-.5-.9-.7-.2-.2-.4-.3-.6-.5a6.475,6.475,0,0,1-.9-.8l-.5-.5a6.468,6.468,0,0,0-.9-.8l-.4-.4-.9-.9c-.1-.1-.2-.3-.4-.4-.3-.4-.6-.7-.9-1.1l-.3-.3a14.7,14.7,0,0,1-1-1.3l-.2-.2c-.4-.5-.7-1-1.1-1.5h0a67.217,67.217,0,0,1-5-9.7c0-.2-.1-.3-.1-.4s-.1-.2-.1-.4c-.1-.2-.1-.3-.2-.4,0-.1-.1-.2-.1-.3-.1-.1-.1-.3-.2-.4a.349.349,0,0,0-.1-.2,1.38,1.38,0,0,1-.3-.4c0-.1-.1-.1-.1-.2l-.3-.3-.1-.1a1.38,1.38,0,0,0-.4-.3l-.1-.1c-.1-.1-.3-.1-.4-.2h-.1c-.2-.1-.4-.1-.6-.2a1.388,1.388,0,0,0-.9,0H839c-.1,0-.3.1-.4.1s-.2,0-.2.1c-.2,0-.3.1-.5.2-.1,0-.1,0-.2.1-.2.1-.3.1-.5.2-.1,0-.1,0-.2.1a2.185,2.185,0,0,0-.5.3l-.1.1a2.185,2.185,0,0,0-.5.3l-.1.1c-.2.1-.4.3-.6.4l-.1.1c-.2.1-.4.3-.6.4l-.1.1c-.2.2-.4.3-.5.5l-.1.1c-.2.2-.4.3-.5.5l-.1.1-.5.5-.1.1-.5.5-.2.2c-.1.2-.3.3-.4.5-.1.1-.1.2-.2.3s-.2.3-.3.4a1.38,1.38,0,0,0-.3.4l-.3.3a1.794,1.794,0,0,0-.5.7,5.065,5.065,0,0,0-.2-1.3v-.1l-.3-1.2v-.1a5.356,5.356,0,0,0-.5-1.1.1.1,0,0,0-.1-.1c-.2-.3-.4-.7-.6-1l-.1-.1c-.2-.3-.5-.6-.7-.9l-.1-.1-.8-.8-.1-.1a5.5,5.5,0,0,0-.9-.7c-.1,0-.1-.1-.2-.1a5.5,5.5,0,0,1-.9-.7c-.1,0-.1-.1-.2-.1a8.782,8.782,0,0,0-1-.6c-.1,0-.1-.1-.2-.1-.3-.2-.7-.4-1-.6l-.1-.1c-.3-.2-.7-.3-1-.5a.1.1,0,0,1-.1-.1c-.3-.2-.7-.3-1-.5h-.1a6.9,6.9,0,0,0-1-.4h0c-.3-.1-.7-.3-1-.4h0c-.7-.2-1.3-.5-1.8-.6a110.868,110.868,0,0,0,3.7-11.6,2.92,2.92,0,0,0,.2-.9c.2-1,.5-2,.7-2.9l.3-1.5c.2-.8.3-1.7.5-2.5.1-.7.2-1.3.3-2l.3-2.1c.1-.8.2-1.6.3-2.3.1-.6.1-1.2.2-1.8.1-.9.1-1.8.2-2.7,0-.5.1-1,.1-1.4.1-1.4.1-2.8.1-4.2a9.165,9.165,0,0,1,1.1-3.7c.8-1.8,1.5-3.6.9-5.5a55.256,55.256,0,0,0-5.3-10.6c-.6-.9-1.1-1.9-1.7-2.9-.2-.3-.3-.6-.5-.9a17.371,17.371,0,0,1-1-1.9c.1-.1.2-.1.4-.2,2-1.3,2.7-3.4,3.5-5.5a16.5,16.5,0,0,1,1.6-3.6q4.35-2.85,8.1.9v.1l.2.1.8.8v-.3c3.9,2.7,5,7,3,11.9l-.3.7h.7c.6,0,1.1-.1,1.5-.1a2.76,2.76,0,0,1,3.1,1c6.3,6.3,12.9,12.9,16.2,20.9a29.636,29.636,0,0,1,1.7,5.8l.1.7.6-.4c2.4-1.6,5.4-1.6,8.4-1.6h3.9a.367.367,0,0,0,.3-.1.6.6,0,0,0,.4-.1.367.367,0,0,0,.3-.1c.1,0,.2-.1.4-.1.1,0,.2-.1.3-.1s.2-.1.4-.1c.1,0,.2-.1.3-.1s.2-.1.3-.1.2-.1.3-.1c.1-.1.2-.1.3-.2s.2-.1.3-.2.2-.1.3-.2.2-.1.2-.2l.3-.3.2-.2c.1-.1.2-.2.2-.3.1-.1.1-.2.2-.3s.1-.2.2-.4c.1-.1.1-.2.2-.3s.1-.3.2-.4c0-.1.1-.2.1-.4V511a31.065,31.065,0,0,0,4.1,2A8.192,8.192,0,0,1,882.6,514.2Zm61.3-31.1a14.445,14.445,0,0,1-11.7-.2,8.847,8.847,0,0,1-5.1-5.8l-.2-.9-.6.7a47.6,47.6,0,0,1-33.4,15.9h-3.6c-3.7,0-7.6,0-11.1,1.3a12.361,12.361,0,0,0-6.7,6.2,7.166,7.166,0,0,0-.2,5.9,8.216,8.216,0,0,0,3.2,3.8c0,.1,0,.2-.1.2,0,.1-.1.2-.1.3s-.1.2-.1.3-.1.2-.1.3c-.1.1-.1.2-.2.3s-.1.2-.2.3-.1.2-.2.3l-.2.2-.2.2-.2.2c-.1.1-.2.1-.3.2l-.2.2c-.1.1-.2.1-.3.2a.349.349,0,0,0-.2.1c-.1,0-.2.1-.3.1s-.2.1-.3.1-.2.1-.3.1-.2.1-.3.1-.2.1-.4.1a.367.367,0,0,0-.3.1.6.6,0,0,0-.4.1h-4c-2.9,0-5.8,0-8.3,1.4-2.2-10.8-10.2-18.8-18-26.6-.2-.2-.4-.3-.5-.5l-.1-.1a1.382,1.382,0,0,1-.4-.3h-.1c-.2-.1-.3-.2-.5-.2h-.1c-.1,0-.2-.1-.4-.1h-.1a.6.6,0,0,1-.4-.1h-.9a.9.9,0,0,0-.5.1c-.2,0-.4.1-.6.1.1-.3.2-.7.3-1,0-.1.1-.2.1-.4s.1-.4.1-.6a.6.6,0,0,1,.1-.4,4.332,4.332,0,0,1,.1-.5v-2.7a.6.6,0,0,0-.1-.4c0-.2-.1-.3-.1-.5,0-.1-.1-.3-.1-.4s-.1-.3-.1-.4-.1-.3-.1-.4c-.1-.1-.1-.3-.2-.4s-.1-.2-.2-.4c-.1-.1-.1-.3-.2-.4s-.1-.2-.2-.4a.758.758,0,0,1-.2-.4l-.3-.3a1.381,1.381,0,0,1-.3-.4l-.3-.3-.3-.3-.3-.3-.3-.3a2036447508552.936,2036447508552.936,0,0,1-.8-.6c-.1-.1-.3-.2-.4-.3s-.2-.1-.3-.2v-2.1c0-.4.1-.8.1-1.1s.1-.7.1-1,.1-.6.1-.9c.1-.4.1-.8.2-1.3a4.332,4.332,0,0,1,.1-.5,50.958,50.958,0,0,1,8-18.7h0c.4-.6.9-1.2,1.3-1.8,0-.1.1-.1.1-.2a19.23,19.23,0,0,1,1.3-1.7l.3-.3a17.387,17.387,0,0,1,1.3-1.5c.1-.1.2-.3.4-.4a16.609,16.609,0,0,1,1.3-1.4c.1-.1.2-.3.4-.4.1,0,.3.1.4.1l.2-.5c.1,0,.3-.1.4-.1s.3-.1.4-.1c.2-.1.4-.1.6-.2.1,0,.3-.1.4-.1l.6-.3a.367.367,0,0,1,.3-.1,2.177,2.177,0,0,0,.8-.5h.1l.9-.6c.1-.1.2-.1.3-.2.2-.2.4-.3.6-.5l.3-.3.5-.5a1.381,1.381,0,0,0,.3-.4c.1-.1.2-.3.4-.4l.1.1c5.1-9.5,11.1-18.4,20.3-19.7,4.9-.7,9.8.9,14,2.5a160.836,160.836,0,0,1,29.9,15c3.9,2.5,7.5,6.4,6,9.9a81.849,81.849,0,0,1-13.1,0c-5.1-.3-10.4-.6-15.6.4-6.2,1.1-12.1,5.1-15,10.1a12.119,12.119,0,0,0-1.3,10.4l.3.7.6-.5c12.2-11.7,31-12.7,49.2-12.8,5.9,0,12.6,0,18.5,2.3,6.4,2.5,10.7,7.6,11.2,13.1C954.7,473.8,950.4,480.2,943.9,483.1Z"/>
      </g>
    </g>
  </g>
</svg>
